<mxfile host="app.diagrams.net" modified="2022-08-30T20:21:06.718Z" agent="5.0 (Windows)" etag="CkAOg62ASgaUbFv1qWf5" version="20.2.7" type="github" pages="4">
  <diagram name="Hardware - Overview" id="Hardware_-_Overview">
    <mxGraphModel dx="1520" dy="1300" grid="1" gridSize="10" guides="1" tooltips="1" connect="1" arrows="1" fold="1" page="1" pageScale="1" pageWidth="850" pageHeight="1100" math="0" shadow="0">
      <root>
        <mxCell id="0" />
        <mxCell id="1" value="Connector" parent="0" />
        <mxCell id="2" value="&lt;div style=&quot;font-size: 1px&quot;&gt;&lt;font style=&quot;font-size:16.93px;font-family:Calibri;color:#000000;direction:ltr;letter-spacing:0px;line-height:120%;opacity:1&quot;&gt;SBC (RPI, Jetson, Laptop)&lt;br/&gt;&lt;/font&gt;&lt;/div&gt;" style="verticalAlign=middle;align=center;vsdxID=3;fillColor=#dae8fc;gradientColor=#7ea6e0;shape=stencil(vZTBbsMgDIafhmMQwVKynLvuPdBKEjQWIoet2duXyEUrJOmpys3GH7b+X2AGp6lXo2ZSTB7dl76ai+8ZvDMpzdBrND5EDM4MTq1D3aH7GS6Uj2ohl+jb/S4dZrpXiuWKFH8xpfyDWGuGB7Z5GavwM9QwsrwGojHikjc1Hc1pg9jwreJVJAo1m6lA55U3bqD6nbYKO12EcUVrVZeUpqvW4+p4U0w+vAQO8FRPnekBLiDRk/kjjpKyOXdH9CvI3JlmZYxMfNkz+gBr9h7YppJScClXWqpUzM7nOuTFPvt+IfjfB62xltbJYz3fH+GIdg+cbw==);strokeColor=#6c8ebf;strokeWidth=2;points=[[1,0.5,0],[0.5,0.5,0],[0.5,0,0],[0.03,0.04,0],[0.97,0.04,0],[0.03,0.96,0],[0.97,0.96,0]];labelBackgroundColor=none;rounded=0;html=1;whiteSpace=wrap;" parent="1" vertex="1">
          <mxGeometry x="1548" y="1057" width="202" height="151" as="geometry" />
        </mxCell>
        <mxCell id="3" value="&lt;div style=&quot;font-size: 1px&quot;&gt;&lt;font style=&quot;font-size:16.93px;font-family:Calibri;color:#000000;direction:ltr;letter-spacing:0px;line-height:120%;opacity:1&quot;&gt;ESP32 â€“ GRBL Controller&lt;br/&gt;&lt;/font&gt;&lt;/div&gt;" style="verticalAlign=middle;align=center;vsdxID=7;fillColor=#ffdf71;gradientColor=none;shape=stencil(vVTbDoIwDP2aPUKAKcIz4n8sMmBxMlKm4N87UlCuJkbDWy+nl9O0JTSqclZy4jmVBnXhtUh0TuiReJ4ocg5CG4nQmNAoVcAzULciQb1kLbKVrureZmgwznXaEM959CrqJ8RKUQyw4d+wDM7GB68e7J2PcOjx1A73aGrGGfqMgW/7hw5hsUZUFijNtFAF+ju0ZJBxy9SzUsmykauqOS9n5kU20+KmPUrXCYV2EM74uMGIz2RAzlZUFuuukP4H8vvJrI16g+Gsrdgva7t4B5vs7KcLNML7JaRCSvwoQ//0hRgTvh8aPwE=);strokeColor=#000000;strokeWidth=2;points=[[1,0.5,0],[0.5,0.5,0],[0.5,0,0],[0.03,0.04,0],[0.97,0.04,0],[0.03,0.96,0],[0.97,0.96,0]];labelBackgroundColor=none;rounded=0;html=1;whiteSpace=wrap;" parent="1" vertex="1">
          <mxGeometry x="1945" y="1076" width="152" height="114" as="geometry" />
        </mxCell>
        <mxCell id="4" value="&lt;div style=&quot;font-size: 1px&quot;&gt;&lt;font style=&quot;font-size:16.93px;font-family:Calibri;color:#000000;direction:ltr;letter-spacing:0px;line-height:120%;opacity:1&quot;&gt;Integrated Stepper Driver (Y)&lt;br/&gt;&lt;/font&gt;&lt;/div&gt;" style="verticalAlign=middle;align=center;vsdxID=9;fillColor=#ffdf71;gradientColor=none;shape=stencil(vVTbDoIwDP2aPbLgakSevfzHIgMWJyNlKv69IwUVBBOj4a2X08tp2jLYVLksFRNh5dAe1VUnLmewZULoIleonZcY7BhsUosqQ3suEtJL2SAb6WQvTYaa4hZhEyLCW6eSvies0cULNv4bVuLB+/DRA18KgmOHBx6Tpe4n6BKuV3wVtYhA1roK0DrptC3I36KNxEwFvlyQGpn1XNVVqfLNPEpmWNx3BzDNJ+YRDOgIHkc9PoP5hHNRGa07QfofyO8nMzXqGYYztWI/bO3oFcyysp/uzwvPh5BqY+ifvPqHD8Sb6PnA7g4=);strokeColor=#000000;strokeWidth=2;points=[[1,0.5,0],[0.5,0.5,0],[0.5,0,0],[0.03,0.04,0],[0.97,0.04,0],[0.03,0.96,0],[0.97,0.96,0]];labelBackgroundColor=none;rounded=0;html=1;whiteSpace=wrap;" parent="1" vertex="1">
          <mxGeometry x="2363" y="1026" width="124" height="93" as="geometry" />
        </mxCell>
        <mxCell id="5" value="&lt;div style=&quot;font-size: 1px&quot;&gt;&lt;font style=&quot;font-size:16.93px;font-family:Calibri;color:#000000;direction:ltr;letter-spacing:0px;line-height:120%;opacity:1&quot;&gt;Integrated Stepper Driver (Z)&lt;br/&gt;&lt;/font&gt;&lt;/div&gt;" style="verticalAlign=middle;align=center;vsdxID=11;fillColor=#ffdf71;gradientColor=none;shape=stencil(vVTbDoIwDP2aPbLgakSevfzHIgMWJyNlKv69IwUVBBOj4a2X08tp2jLYVLksFRNh5dAe1VUnLmewZULoIleonZcY7BhsUosqQ3suEtJL2SAb6WQvTYaa4hZhEyLCW6eSvies0cULNv4bVuLB+/DRA18KgmOHBx6Tpe4n6BKuV3wVtYhA1roK0DrptC3I36KNxEwFvlyQGpn1XNVVqfLNPEpmWNx3BzDNJ+YRDOgIHkc9PoP5hHNRGa07QfofyO8nMzXqGYYztWI/bO3oFcyysp/uzwvPh5BqY+ifvPqHD8Sb6PnA7g4=);strokeColor=#000000;strokeWidth=2;points=[[1,0.5,0],[0.5,0.5,0],[0.5,0,0],[0.03,0.04,0],[0.97,0.04,0],[0.03,0.96,0],[0.97,0.96,0]];labelBackgroundColor=none;rounded=0;html=1;whiteSpace=wrap;" parent="1" vertex="1">
          <mxGeometry x="2363" y="1149" width="124" height="93" as="geometry" />
        </mxCell>
        <mxCell id="6" value="&lt;div style=&quot;font-size: 1px&quot;&gt;&lt;font style=&quot;font-size:16.93px;font-family:Calibri;color:#000000;direction:ltr;letter-spacing:0px;line-height:120%;opacity:1&quot;&gt;Integrated Stepper Driver (X1)&lt;br/&gt;&lt;/font&gt;&lt;/div&gt;" style="verticalAlign=middle;align=center;vsdxID=12;fillColor=#ffdf71;gradientColor=none;shape=stencil(vVTbDoIwDP2aPbLgakSevfzHIgMWJyNlKv69IwUVBBOj4a2X08tp2jLYVLksFRNh5dAe1VUnLmewZULoIleonZcY7BhsUosqQ3suEtJL2SAb6WQvTYaa4hZhEyLCW6eSvies0cULNv4bVuLB+/DRA18KgmOHBx6Tpe4n6BKuV3wVtYhA1roK0DrptC3I36KNxEwFvlyQGpn1XNVVqfLNPEpmWNx3BzDNJ+YRDOgIHkc9PoP5hHNRGa07QfofyO8nMzXqGYYztWI/bO3oFcyysp/uzwvPh5BqY+ifvPqHD8Sb6PnA7g4=);strokeColor=#000000;strokeWidth=2;points=[[1,0.5,0],[0.5,0.5,0],[0.5,0,0],[0.03,0.04,0],[0.97,0.04,0],[0.03,0.96,0],[0.97,0.96,0]];labelBackgroundColor=none;rounded=0;html=1;whiteSpace=wrap;" parent="1" vertex="1">
          <mxGeometry x="2143" y="903" width="124" height="93" as="geometry" />
        </mxCell>
        <mxCell id="7" value="&lt;div style=&quot;font-size: 1px&quot;&gt;&lt;font style=&quot;font-size:16.93px;font-family:Calibri;color:#000000;direction:ltr;letter-spacing:0px;line-height:120%;opacity:1&quot;&gt;Integrated Stepper Driver (X2)&lt;br/&gt;&lt;/font&gt;&lt;/div&gt;" style="verticalAlign=middle;align=center;vsdxID=13;fillColor=#ffdf71;gradientColor=none;shape=stencil(vVTbDoIwDP2aPbLgakSevfzHIgMWJyNlKv69IwUVBBOj4a2X08tp2jLYVLksFRNh5dAe1VUnLmewZULoIleonZcY7BhsUosqQ3suEtJL2SAb6WQvTYaa4hZhEyLCW6eSvies0cULNv4bVuLB+/DRA18KgmOHBx6Tpe4n6BKuV3wVtYhA1roK0DrptC3I36KNxEwFvlyQGpn1XNVVqfLNPEpmWNx3BzDNJ+YRDOgIHkc9PoP5hHNRGa07QfofyO8nMzXqGYYztWI/bO3oFcyysp/uzwvPh5BqY+ifvPqHD8Sb6PnA7g4=);strokeColor=#000000;strokeWidth=2;points=[[1,0.5,0],[0.5,0.5,0],[0.5,0,0],[0.03,0.04,0],[0.97,0.04,0],[0.03,0.96,0],[0.97,0.96,0]];labelBackgroundColor=none;rounded=0;html=1;whiteSpace=wrap;" parent="1" vertex="1">
          <mxGeometry x="2143" y="1272" width="124" height="93" as="geometry" />
        </mxCell>
        <mxCell id="8" value="&lt;div style=&quot;font-size: 1px&quot;&gt;&lt;font style=&quot;font-size:16.93px;font-family:Calibri;color:#000000;direction:ltr;letter-spacing:0px;line-height:120%;opacity:1&quot;&gt;NEMA 23 Stepper Motor&lt;br/&gt;&lt;/font&gt;&lt;/div&gt;" style="verticalAlign=middle;align=center;vsdxID=14;fillColor=#bfbfbf;gradientColor=none;shape=stencil(vVRRDoIwDD3NPlnGahS+Ue+x6IDFyUiZgrd3ZKKAYGI0/LV9b+1e05ZAUuWilISzyqI5yVodbU5gSzhXRS5RWWcR2BFIUoMyQ3Mpjt4vRctsrbO5thka/y5k7RPObp3r/b3nalX0uPHfuAIPDsPnH+hm4+nY8VcUHqFmmKHLGK3pumMEolFVgMYKq0zh8QdbC8xk4OoFqRbZAKpqKcu38KSacfEQKMC8oJhGfKQHKIsHekYNYktJmaw7I/ofzO87M9fqBZozN2K/jO3kHiwys5820Bmvk5Aqrf1F6ePjE+JC/vzA7g4=);strokeColor=#000000;strokeWidth=2;points=[[1,0.5,0],[0.5,0.5,0],[0.5,0,0],[0.03,0.04,0],[0.97,0.04,0],[0.03,0.96,0],[0.97,0.96,0]];labelBackgroundColor=none;rounded=0;html=1;whiteSpace=wrap;" parent="1" vertex="1">
          <mxGeometry x="2667" y="915" width="92" height="69" as="geometry" />
        </mxCell>
        <mxCell id="9" value="&lt;div style=&quot;font-size: 1px&quot;&gt;&lt;font style=&quot;font-size:16.93px;font-family:Calibri;color:#000000;direction:ltr;letter-spacing:0px;line-height:120%;opacity:1&quot;&gt;NEMA 17 Stepper Motor&lt;br/&gt;&lt;/font&gt;&lt;/div&gt;" style="verticalAlign=middle;align=center;vsdxID=15;fillColor=#bfbfbf;gradientColor=none;shape=stencil(vVRRDoIwDD3NPlnGahS+Ue+x6IDFyUiZgrd3ZKKAYGI0/LV9b+1e05ZAUuWilISzyqI5yVodbU5gSzhXRS5RWWcR2BFIUoMyQ3Mpjt4vRctsrbO5thka/y5k7RPObp3r/b3nalX0uPHfuAIPDsPnH+hm4+nY8VcUHqFmmKHLGK3pumMEolFVgMYKq0zh8QdbC8xk4OoFqRbZAKpqKcu38KSacfEQKMC8oJhGfKQHKIsHekYNYktJmaw7I/ofzO87M9fqBZozN2K/jO3kHiwys5820Bmvk5Aqrf1F6ePjE+JC/vzA7g4=);strokeColor=#000000;strokeWidth=2;points=[[1,0.5,0],[0.5,0.5,0],[0.5,0,0],[0.03,0.04,0],[0.97,0.04,0],[0.03,0.96,0],[0.97,0.96,0]];labelBackgroundColor=none;rounded=0;html=1;whiteSpace=wrap;" parent="1" vertex="1">
          <mxGeometry x="2667" y="1038" width="92" height="69" as="geometry" />
        </mxCell>
        <mxCell id="10" value="&lt;div style=&quot;font-size: 1px&quot;&gt;&lt;font style=&quot;font-size:16.93px;font-family:Calibri;color:#000000;direction:ltr;letter-spacing:0px;line-height:120%;opacity:1&quot;&gt;NEMA 17 Stepper Motor&lt;br/&gt;&lt;/font&gt;&lt;/div&gt;" style="verticalAlign=middle;align=center;vsdxID=16;fillColor=#bfbfbf;gradientColor=none;shape=stencil(vVRRDoIwDD3NPlnGahS+Ue+x6IDFyUiZgrd3ZKKAYGI0/LV9b+1e05ZAUuWilISzyqI5yVodbU5gSzhXRS5RWWcR2BFIUoMyQ3Mpjt4vRctsrbO5thka/y5k7RPObp3r/b3nalX0uPHfuAIPDsPnH+hm4+nY8VcUHqFmmKHLGK3pumMEolFVgMYKq0zh8QdbC8xk4OoFqRbZAKpqKcu38KSacfEQKMC8oJhGfKQHKIsHekYNYktJmaw7I/ofzO87M9fqBZozN2K/jO3kHiwys5820Bmvk5Aqrf1F6ePjE+JC/vzA7g4=);strokeColor=#000000;strokeWidth=2;points=[[1,0.5,0],[0.5,0.5,0],[0.5,0,0],[0.03,0.04,0],[0.97,0.04,0],[0.03,0.96,0],[0.97,0.96,0]];labelBackgroundColor=none;rounded=0;html=1;whiteSpace=wrap;" parent="1" vertex="1">
          <mxGeometry x="2667" y="1161" width="92" height="69" as="geometry" />
        </mxCell>
        <mxCell id="11" value="&lt;div style=&quot;font-size: 1px&quot;&gt;&lt;font style=&quot;font-size:16.93px;font-family:Calibri;color:#000000;direction:ltr;letter-spacing:0px;line-height:120%;opacity:1&quot;&gt;NEMA 23 Stepper Motor&lt;br/&gt;&lt;/font&gt;&lt;/div&gt;" style="verticalAlign=middle;align=center;vsdxID=17;fillColor=#bfbfbf;gradientColor=none;shape=stencil(vVRRDoIwDD3NPlnGahS+Ue+x6IDFyUiZgrd3ZKKAYGI0/LV9b+1e05ZAUuWilISzyqI5yVodbU5gSzhXRS5RWWcR2BFIUoMyQ3Mpjt4vRctsrbO5thka/y5k7RPObp3r/b3nalX0uPHfuAIPDsPnH+hm4+nY8VcUHqFmmKHLGK3pumMEolFVgMYKq0zh8QdbC8xk4OoFqRbZAKpqKcu38KSacfEQKMC8oJhGfKQHKIsHekYNYktJmaw7I/ofzO87M9fqBZozN2K/jO3kHiwys5820Bmvk5Aqrf1F6ePjE+JC/vzA7g4=);strokeColor=#000000;strokeWidth=2;points=[[1,0.5,0],[0.5,0.5,0],[0.5,0,0],[0.03,0.04,0],[0.97,0.04,0],[0.03,0.96,0],[0.97,0.96,0]];labelBackgroundColor=none;rounded=0;html=1;whiteSpace=wrap;" parent="1" vertex="1">
          <mxGeometry x="2667" y="1284" width="92" height="69" as="geometry" />
        </mxCell>
        <mxCell id="12" value="&lt;div style=&quot;font-size: 1px&quot;&gt;&lt;font style=&quot;font-size:16.93px;font-family:Calibri;color:#000000;direction:ltr;letter-spacing:0px;line-height:120%;opacity:1&quot;&gt;Sensor End Effector&lt;br/&gt;&lt;/font&gt;&lt;/div&gt;" style="verticalAlign=middle;align=center;vsdxID=18;fillColor=#ffdf71;gradientColor=none;shape=stencil(vVTbDoIwDP2aPbLgGlCevfzHogMWJyNlCv69IxUVBBOj4a2X08tp2jJYV7ksFRNh5dAeVa0PLmewYULoIleonZcYbBmsU4sqQ3suDqSXskW20sle2gwNxS3CNkSE104lfUdYo4sXbPI3rMS99+GjB76ICY4dHngUkanpZ+gyrmIeL++IQDa6CtA66bQtyH9HG4mZCny9IDUy67mqWqnyzTzKZljctwcwTSjhkAz4CB6JHp/BgMK5qIzWnSD9D+T3k5ka9QzDmVqxX9Z29A5m2dlPF+iF50tItTH0UV79wxfiTfR+YHsD);strokeColor=#000000;strokeWidth=2;points=[[1,0.5,0],[0.5,0.5,0],[0.5,0,0],[0.03,0.04,0],[0.97,0.04,0],[0.03,0.96,0],[0.97,0.96,0]];labelBackgroundColor=none;rounded=0;html=1;whiteSpace=wrap;" parent="1" vertex="1">
          <mxGeometry x="1813" y="870" width="108" height="81" as="geometry" />
        </mxCell>
        <mxCell id="13" value="&lt;div style=&quot;font-size: 1px&quot;&gt;&lt;font style=&quot;font-size:16.93px;font-family:Calibri;color:#000000;direction:ltr;letter-spacing:0px;line-height:120%;opacity:1&quot;&gt;Environment&lt;br/&gt;(Humidity, Light, CO2, Spectral Imaging)&lt;br/&gt;&lt;/font&gt;&lt;/div&gt;" style="verticalAlign=middle;align=center;vsdxID=19;fillColor=#d5e8d4;gradientColor=#97d077;shape=stencil(vVTbDoIwDP2aPUKAKcIz4n8sMmBxMlKm4N87UlCuJkbDWy+nl9O0JTSqclZy4jmVBnXhtUh0TuiReJ4ocg5CG4nQmNAoVcAzULciQb1kLbKVrureZmgwznXaEM959CrqJ8RKUQyw4d+wDM7GB68e7J2PcOjx1A73aGrGGfqMgW/7hw5hsUZUFijNtFAF+ju0ZJBxy9SzUsmykauqOS9n5kU20+KmPUrXCYV2EM74uMGIz2RAzlZUFuuukP4H8vvJrI16g+Gsrdgva7t4B5vs7KcLNML7JaRCSvwoQ//0hRgTvh8aPwE=);strokeColor=#82b366;strokeWidth=2;points=[[1,0.5,0],[0.5,0.5,0],[0.5,0,0],[0.03,0.04,0],[0.97,0.04,0],[0.03,0.96,0],[0.97,0.96,0]];labelBackgroundColor=none;rounded=0;html=1;whiteSpace=wrap;" parent="1" vertex="1">
          <mxGeometry x="1791" y="655" width="152" height="114" as="geometry" />
        </mxCell>
        <mxCell id="14" value="&lt;div style=&quot;font-size: 1px&quot;&gt;&lt;font style=&quot;font-size:16.93px;font-family:Calibri;color:#000000;direction:ltr;letter-spacing:0px;line-height:120%;opacity:1&quot;&gt;120/60Hz AC / 24V DC Converter&lt;br/&gt;&lt;/font&gt;&lt;/div&gt;" style="verticalAlign=middle;align=center;vsdxID=20;fillColor=#dae8fc;gradientColor=#7ea6e0;shape=stencil(vVTbDoIwDP2aPbLgGlCevfzHogMWJyNlCv69IxUVBBOj4a2X08tp2jJYV7ksFRNh5dAeVa0PLmewYULoIleonZcYbBmsU4sqQ3suDqSXskW20sle2gwNxS3CNkSE104lfUdYo4sXbPI3rMS99+GjB76ICY4dHngUkanpZ+gyrmIeL++IQDa6CtA66bQtyH9HG4mZCny9IDUy67mqWqnyzTzKZljctwcwTSjhkAz4CB6JHp/BgMK5qIzWnSD9D+T3k5ka9QzDmVqxX9Z29A5m2dlPF+iF50tItTH0UV79wxfiTfR+YHsD);strokeColor=#6c8ebf;strokeWidth=2;points=[[1,0.5,0],[0.5,0.5,0],[0.5,0,0],[0.03,0.04,0],[0.97,0.04,0],[0.03,0.96,0],[0.97,0.96,0]];labelBackgroundColor=none;rounded=0;html=1;whiteSpace=wrap;" parent="1" vertex="1">
          <mxGeometry x="1351" y="1298" width="108" height="81" as="geometry" />
        </mxCell>
        <mxCell id="15" value="&lt;div style=&quot;font-size: 1px&quot;&gt;&lt;font style=&quot;font-size:16.93px;font-family:Calibri;color:#000000;direction:ltr;letter-spacing:0px;line-height:120%;opacity:1&quot;&gt;AC Mains&lt;br/&gt;&lt;/font&gt;&lt;/div&gt;" style="verticalAlign=middle;align=center;vsdxID=21;fillColor=#d5e8d4;gradientColor=#97d077;shape=stencil(vVTbDoMgDP0aHjEOErc9O/cfZKKSMTGFTff3w6BRmS6ZMb71ckrbk0MRjXXBKo5IqA2oO69FagpEL4gQURYchLEWogmicaaA56CeZer8irXI1nqoV/tC4+oOYVtCwnfvOv/qsFKUI+x5MyyDm82BNwP04CiIji7UTMv75040oLRDYNYIjUEZZoQqXb5DSwY5x7YZziTLJyldc159hWdX8ZsP463cxuMm3GuR2b4LK2+B/JeXJZp3oGZJXqv1Oqv+XcT6699ZYzgEmZDS3ZFx3j8cNuSODk0+);strokeColor=#82b366;strokeWidth=2;points=[[1,0.5,0],[0.5,0.5,0],[0.5,0,0],[0.03,0.05,0],[0.97,0.05,0],[0.03,0.95,0],[0.97,0.95,0]];labelBackgroundColor=none;rounded=0;html=1;whiteSpace=wrap;" parent="1" vertex="1">
          <mxGeometry x="1145" y="1314" width="80" height="48" as="geometry" />
        </mxCell>
        <mxCell id="16" value="&lt;div style=&quot;font-size: 1px&quot;&gt;&lt;font style=&quot;font-size:16.93px;font-family:Calibri;color:#000000;direction:ltr;letter-spacing:0px;line-height:120%;opacity:1&quot;&gt;120/60Hz AC / xxV DC Converter&lt;br/&gt;&lt;/font&gt;&lt;/div&gt;" style="verticalAlign=middle;align=center;vsdxID=22;fillColor=#dae8fc;gradientColor=#7ea6e0;shape=stencil(vVTbDoIwDP2aPbLgGlCevfzHogMWJyNlCv69IxUVBBOj4a2X08tp2jJYV7ksFRNh5dAeVa0PLmewYULoIleonZcYbBmsU4sqQ3suDqSXskW20sle2gwNxS3CNkSE104lfUdYo4sXbPI3rMS99+GjB76ICY4dHngUkanpZ+gyrmIeL++IQDa6CtA66bQtyH9HG4mZCny9IDUy67mqWqnyzTzKZljctwcwTSjhkAz4CB6JHp/BgMK5qIzWnSD9D+T3k5ka9QzDmVqxX9Z29A5m2dlPF+iF50tItTH0UV79wxfiTfR+YHsD);strokeColor=#6c8ebf;strokeWidth=2;points=[[1,0.5,0],[0.5,0.5,0],[0.5,0,0],[0.03,0.04,0],[0.97,0.04,0],[0.03,0.96,0],[0.97,0.96,0]];labelBackgroundColor=none;rounded=0;html=1;whiteSpace=wrap;" parent="1" vertex="1">
          <mxGeometry x="1352" y="1092" width="108" height="81" as="geometry" />
        </mxCell>
        <mxCell id="17" value="&lt;div style=&quot;font-size: 1px&quot;&gt;&lt;font style=&quot;font-size:16.93px;font-family:Calibri;color:#000000;direction:ltr;letter-spacing:0px;line-height:120%;opacity:1&quot;&gt;AC Mains&lt;br/&gt;&lt;/font&gt;&lt;/div&gt;" style="verticalAlign=middle;align=center;vsdxID=23;fillColor=#d5e8d4;gradientColor=#97d077;shape=stencil(vVTbDoMgDP0aHjEOErc9O/cfZKKSMTGFTff3w6BRmS6ZMb71ckrbk0MRjXXBKo5IqA2oO69FagpEL4gQURYchLEWogmicaaA56CeZer8irXI1nqoV/tC4+oOYVtCwnfvOv/qsFKUI+x5MyyDm82BNwP04CiIji7UTMv75040oLRDYNYIjUEZZoQqXb5DSwY5x7YZziTLJyldc159hWdX8ZsP463cxuMm3GuR2b4LK2+B/JeXJZp3oGZJXqv1Oqv+XcT6699ZYzgEmZDS3ZFx3j8cNuSODk0+);strokeColor=#82b366;strokeWidth=2;points=[[1,0.5,0],[0.5,0.5,0],[0.5,0,0],[0.03,0.05,0],[0.97,0.05,0],[0.03,0.95,0],[0.97,0.95,0]];labelBackgroundColor=none;rounded=0;html=1;whiteSpace=wrap;" parent="1" vertex="1">
          <mxGeometry x="1145" y="1108" width="80" height="48" as="geometry" />
        </mxCell>
        <mxCell id="18" style="vsdxID=24;fillColor=#e6d0de;gradientColor=#d5739d;strokeColor=#996185;strokeWidth=2;points=[[0.5,0.5,0]];labelBackgroundColor=none;rounded=0;html=1;whiteSpace=wrap;" parent="1" vertex="1">
          <mxGeometry x="1301" y="861" width="100" height="100" as="geometry" />
        </mxCell>
        <mxCell id="19" style="vsdxID=25;fillColor=#d1ecbb;gradientColor=none;shape=stencil(lVfbUtwwDP2afdU4Unx7pu1/MGUpO6Uss0ALf195EluysgnhLeuV5JOjo0sOdPPycPt8PKB7eb2cfx//ne5eHw707YB4eno4Xk6v/HSg7we6uT9fjr8u57enu+n3822xLE9/zn9LhPfJL3gIQ/FC9zGdeAduOvkxOfx8u0wew9JlPvIB0E9H7zhbEYxhtqpHA6RxtqL5iC9LsxVJeH394+lJ40VIPd6Qa9Q1vBEGg5fvcMHg5TC+x+sjZG/wKivay5fymY9GXN6vUM5HNEK2fCHE3N9PDoYtwly76qOFHbcBc+oMYEow2AQrGcxHI0G0hCmrNcJ6RUam62uCVB5DU1pjbsYWGUjq4UaEgIv8ooHL0WNa5zcOTSQz3jSCw0/wEvWAGV0ygEuY0RQQQTCC0FZ7Bal9an4DUDSEKZTzEY5Vau3+8vrU3z94yBuEFYo7vtABbvPFqYs9XoxAaYHX5JdF66KBK0b71Jiwgqtwrb2RQ4Yxd/ZjbY1r2WAPowZm0LbT7CGadkpDo6W+nrbaqwbtU8sntdQ3NSqUIlBb7fz2pjuW6H6drkIvdXQNzm2iJXC5R5ti1VtDW4NIqTML1GMVm71MiUdVYYZsqqbgMzIcsPYDqVqlKrouq16G3LOpl9WnaLVLHTuqP1cRBfBm7OleX2dMliZHNvzVxFKURipzarMQCMHgLQMQDd4WRaYO82vxKqu92dU+da1hZZkxzSBT7u8vy0Qy90cw6ZUl4DpdWdqoHZxreFXmZOwli1epoK41vKyZLq6t9vXF0rS/pkflIUuFM+XD3XIxdKKMJkmv6eIl+EZXRrmpthlfS3cd7mLojIslqISxbTks8Gqr3c1G+cheFsySoFHKopNMOZTXN/eXHYA29Ohkz5Q1KG8SxqkzCS4LFi0AY49X72q0MNqnxiFCNPntx4iRg4N+ZZMZuNr6wZtslPFnio1Hvd3YeJKal1NGe7WgXGrpqNmPAtFIoewRS2q94bZFv8pVobbfxzfnc2gduy0zavyhjiAVrsYo9RZ7GTKDWY97bMDM14reG2ipI7oqJH6QT+n70+Pj9CWu/7ef3nw0fbbT9/8=);strokeColor=#ffffff;strokeWidth=2;points=[[0.5,0.5,0]];labelBackgroundColor=none;rounded=0;html=1;whiteSpace=wrap;" parent="18" vertex="1">
          <mxGeometry x="17" width="65" height="50" as="geometry" />
        </mxCell>
        <mxCell id="20" style="vsdxID=26;fillColor=#ff970b;gradientColor=none;shape=stencil(pZPdkoIwDIWfpreZ0JRgr119D0dROiI4Bf/eXrBVCe4yzuxdenrSL2lTRfOmWB1zpbFpfb3PL27TFop+lNauKnLv2i5StFA039Y+3/n6VG3C+rjqnX10qM/9CdeQRwxEfZbGW1DM7LFcBnfpqkl3gvi3nQk4+49d1rI++VB6EnZnBthEf5RMCmiDdNUSibcoUAqcRg+NPVHQBgxPsd8ZLwEsS3KWASeSjZJrLFgryThF1RrISi5K5qjXYVUkHd92OupzeHtPSArEkjt8B/qcHfrtebvgPaVbV5bDnfE8d1L4C7S4Aw==);strokeColor=#ffffff;strokeWidth=2;points=[[0.5,0.5,0]];labelBackgroundColor=none;rounded=0;html=1;whiteSpace=wrap;" parent="18" vertex="1">
          <mxGeometry x="44" y="19" width="10" height="22" as="geometry" />
        </mxCell>
        <mxCell id="21" style="vsdxID=27;fillColor=#ffffff;gradientColor=none;shape=stencil(UzV2Ls5ILEhVNTIoLinKz04tz0wpyVA1dlE1MsrMy0gtyiwBslSNXVWNndPyi1LTi/JL81Ig/IJEkEoQKze/DGRCBUSfoYEBSI+RQSUq3w2iOCczD0kxCUqNjfSMTFGU41FsZq5nTrRiAi4GMhB+TcvMyYEEFbI8etgAhSDhauwKAA==);strokeColor=#ffffff;strokeWidth=2;points=[[0.5,0.5,0]];labelBackgroundColor=none;rounded=0;html=1;whiteSpace=wrap;" parent="18" vertex="1">
          <mxGeometry x="34" y="42" width="30" height="57" as="geometry" />
        </mxCell>
        <mxCell id="22" value="&lt;div style=&quot;font-size: 1px&quot;&gt;&lt;font style=&quot;font-size:16.93px;font-family:Calibri;color:#000000;direction:ltr;letter-spacing:0px;line-height:120%;opacity:1&quot;&gt;Wireless Access Point&lt;br/&gt;&lt;/font&gt;&lt;/div&gt;" style="text;vsdxID=24;fillColor=none;gradientColor=none;strokeColor=none;strokeWidth=2;points=[[0.5,0.5,0]];labelBackgroundColor=none;rounded=0;html=1;whiteSpace=wrap;verticalAlign=middle;align=center;;html=1;" parent="18" vertex="1">
          <mxGeometry x="-31.77" y="100" width="163.54" height="31.61" as="geometry" />
        </mxCell>
        <mxCell id="23" style="vsdxID=28;fillColor=#e6d0de;gradientColor=#d5739d;strokeColor=#996185;strokeWidth=2;points=[[0.5,0.5,0]];labelBackgroundColor=none;rounded=0;html=1;whiteSpace=wrap;" parent="1" vertex="1">
          <mxGeometry x="1145" y="861" width="100" height="100" as="geometry" />
        </mxCell>
        <mxCell id="24" style="vsdxID=29;fillColor=#d1ecbb;gradientColor=none;shape=stencil(lVfbUtwwDP2afdU4Unx7pu1/MGUpO6Uss0ALf195EluysgnhLeuV5JOjo0sOdPPycPt8PKB7eb2cfx//ne5eHw707YB4eno4Xk6v/HSg7we6uT9fjr8u57enu+n3822xLE9/zn9LhPfJL3gIQ/FC9zGdeAduOvkxOfx8u0wew9JlPvIB0E9H7zhbEYxhtqpHA6RxtqL5iC9LsxVJeH394+lJ40VIPd6Qa9Q1vBEGg5fvcMHg5TC+x+sjZG/wKivay5fymY9GXN6vUM5HNEK2fCHE3N9PDoYtwly76qOFHbcBc+oMYEow2AQrGcxHI0G0hCmrNcJ6RUam62uCVB5DU1pjbsYWGUjq4UaEgIv8ooHL0WNa5zcOTSQz3jSCw0/wEvWAGV0ygEuY0RQQQTCC0FZ7Bal9an4DUDSEKZTzEY5Vau3+8vrU3z94yBuEFYo7vtABbvPFqYs9XoxAaYHX5JdF66KBK0b71Jiwgqtwrb2RQ4Yxd/ZjbY1r2WAPowZm0LbT7CGadkpDo6W+nrbaqwbtU8sntdQ3NSqUIlBb7fz2pjuW6H6drkIvdXQNzm2iJXC5R5ti1VtDW4NIqTML1GMVm71MiUdVYYZsqqbgMzIcsPYDqVqlKrouq16G3LOpl9WnaLVLHTuqP1cRBfBm7OleX2dMliZHNvzVxFKURipzarMQCMHgLQMQDd4WRaYO82vxKqu92dU+da1hZZkxzSBT7u8vy0Qy90cw6ZUl4DpdWdqoHZxreFXmZOwli1epoK41vKyZLq6t9vXF0rS/pkflIUuFM+XD3XIxdKKMJkmv6eIl+EZXRrmpthlfS3cd7mLojIslqISxbTks8Gqr3c1G+cheFsySoFHKopNMOZTXN/eXHYA29Ohkz5Q1KG8SxqkzCS4LFi0AY49X72q0MNqnxiFCNPntx4iRg4N+ZZMZuNr6wZtslPFnio1Hvd3YeJKal1NGe7WgXGrpqNmPAtFIoewRS2q94bZFv8pVobbfxzfnc2gduy0zavyhjiAVrsYo9RZ7GTKDWY97bMDM14reG2ipI7oqJH6QT+n70+Pj9CWu/7ef3nw0fbbT9/8=);strokeColor=#ffffff;strokeWidth=2;points=[[0.5,0.5,0]];labelBackgroundColor=none;rounded=0;html=1;whiteSpace=wrap;" parent="23" vertex="1">
          <mxGeometry x="17" width="65" height="50" as="geometry" />
        </mxCell>
        <mxCell id="25" style="vsdxID=30;fillColor=#ff970b;gradientColor=none;shape=stencil(pZPdkoIwDIWfpreZ0JRgr119D0dROiI4Bf/eXrBVCe4yzuxdenrSL2lTRfOmWB1zpbFpfb3PL27TFop+lNauKnLv2i5StFA039Y+3/n6VG3C+rjqnX10qM/9CdeQRwxEfZbGW1DM7LFcBnfpqkl3gvi3nQk4+49d1rI++VB6EnZnBthEf5RMCmiDdNUSibcoUAqcRg+NPVHQBgxPsd8ZLwEsS3KWASeSjZJrLFgryThF1RrISi5K5qjXYVUkHd92OupzeHtPSArEkjt8B/qcHfrtebvgPaVbV5bDnfE8d1L4C7S4Aw==);strokeColor=#ffffff;strokeWidth=2;points=[[0.5,0.5,0]];labelBackgroundColor=none;rounded=0;html=1;whiteSpace=wrap;" parent="23" vertex="1">
          <mxGeometry x="44" y="19" width="10" height="22" as="geometry" />
        </mxCell>
        <mxCell id="26" style="vsdxID=31;fillColor=#ffffff;gradientColor=none;shape=stencil(UzV2Ls5ILEhVNTIoLinKz04tz0wpyVA1dlE1MsrMy0gtyiwBslSNXVWNndPyi1LTi/JL81Ig/IJEkEoQKze/DGRCBUSfoYEBSI+RQSUq3w2iOCczD0kxCUqNjfSMTFGU41FsZq5nTrRiAi4GMhB+TcvMyYEEFbI8etgAhSDhauwKAA==);strokeColor=#ffffff;strokeWidth=2;points=[[0.5,0.5,0]];labelBackgroundColor=none;rounded=0;html=1;whiteSpace=wrap;" parent="23" vertex="1">
          <mxGeometry x="34" y="42" width="30" height="57" as="geometry" />
        </mxCell>
        <mxCell id="27" value="&lt;div style=&quot;font-size: 1px&quot;&gt;&lt;font style=&quot;font-size:16.93px;font-family:Calibri;color:#000000;direction:ltr;letter-spacing:0px;line-height:120%;opacity:1&quot;&gt;Wireless Access Point&lt;br/&gt;&lt;/font&gt;&lt;/div&gt;" style="text;vsdxID=28;fillColor=none;gradientColor=none;strokeColor=none;strokeWidth=2;points=[[0.5,0.5,0]];labelBackgroundColor=none;rounded=0;html=1;whiteSpace=wrap;verticalAlign=middle;align=center;;html=1;" parent="23" vertex="1">
          <mxGeometry x="-31.77" y="100" width="163.54" height="31.61" as="geometry" />
        </mxCell>
        <mxCell id="28" value="&lt;div style=&quot;font-size: 1px&quot;&gt;&lt;font style=&quot;font-size:16.93px;font-family:Calibri;color:#000000;direction:ltr;letter-spacing:0px;line-height:120%;opacity:1&quot;&gt;Remote Clients&lt;br/&gt;&lt;/font&gt;&lt;/div&gt;" style="verticalAlign=middle;align=center;vsdxID=32;fillColor=#99d2f2;gradientColor=none;shape=stencil(vVTbDoIwDP2aPbLgGlCevfzHogMWJyNlCv69IxUVBBOj4a2X08tp2jJYV7ksFRNh5dAeVa0PLmewYULoIleonZcYbBmsU4sqQ3suDqSXskW20sle2gwNxS3CNkSE104lfUdYo4sXbPI3rMS99+GjB76ICY4dHngUkanpZ+gyrmIeL++IQDa6CtA66bQtyH9HG4mZCny9IDUy67mqWqnyzTzKZljctwcwTSjhkAz4CB6JHp/BgMK5qIzWnSD9D+T3k5ka9QzDmVqxX9Z29A5m2dlPF+iF50tItTH0UV79wxfiTfR+YHsD);strokeColor=#000000;strokeWidth=2;points=[[1,0.5,0],[0.5,0.5,0],[0.5,0,0],[0.03,0.04,0],[0.97,0.04,0],[0.03,0.96,0],[0.97,0.96,0]];labelBackgroundColor=none;rounded=0;html=1;whiteSpace=wrap;" parent="1" vertex="1">
          <mxGeometry x="893" y="870" width="108" height="81" as="geometry" />
        </mxCell>
        <mxCell id="29" value="&lt;div style=&quot;font-size: 1px&quot;&gt;&lt;font style=&quot;font-size:16.93px;font-family:Calibri;color:#000000;direction:ltr;letter-spacing:0px;line-height:120%;opacity:1&quot;&gt;End Stops&lt;br/&gt;&lt;/font&gt;&lt;/div&gt;" style="verticalAlign=middle;align=center;vsdxID=54;fillColor=#ffdf71;gradientColor=none;shape=stencil(vVTbDoIwDP2aPbLgakSevfzHIgMWJyNlKv69IwUVBBOj4a2X08tp2jLYVLksFRNh5dAe1VUnLmewZULoIleonZcY7BhsUosqQ3suEtJL2SAb6WQvTYaa4hZhEyLCW6eSvies0cULNv4bVuLB+/DRA18KgmOHBx6Tpe4n6BKuV3wVtYhA1roK0DrptC3I36KNxEwFvlyQGpn1XNVVqfLNPEpmWNx3BzDNJ+YRDOgIHkc9PoP5hHNRGa07QfofyO8nMzXqGYYztWI/bO3oFcyysp/uzwvPh5BqY+ifvPqHD8Sb6PnA7g4=);strokeColor=#000000;strokeWidth=2;points=[[1,0.5,0],[0.5,0.5,0],[0.5,0,0],[0.03,0.04,0],[0.97,0.04,0],[0.03,0.96,0],[0.97,0.96,0]];labelBackgroundColor=none;rounded=0;html=1;whiteSpace=wrap;" parent="1" vertex="1">
          <mxGeometry x="1929" y="1396" width="124" height="93" as="geometry" />
        </mxCell>
        <mxCell id="30" value="&lt;div style=&quot;font-size: 1px&quot;&gt;&lt;font style=&quot;font-size:14.11px;font-family:Calibri;color:#000000;direction:ltr;letter-spacing:0px;line-height:120%;opacity:1&quot;&gt;DIO (5V)&lt;br/&gt;&lt;/font&gt;&lt;/div&gt;" style="vsdxID=55;edgeStyle=none;startArrow=classic;endArrow=none;startSize=5;endSize=5;strokeWidth=2;strokeColor=#000000;spacingTop=0;spacingBottom=0;spacingLeft=0;spacingRight=0;verticalAlign=middle;html=1;labelBackgroundColor=#ffffff;rounded=0;align=center;exitX=0.2894736842105263;exitY=1;exitDx=0;exitDy=0;exitPerimeter=0;entryX=0.5;entryY=0;entryDx=0;entryDy=0;entryPerimeter=0;" parent="1" source="3" target="29" edge="1">
          <mxGeometry relative="1" as="geometry">
            <mxPoint x="8" y="75" as="offset" />
            <Array as="points">
              <mxPoint x="1989" y="1394.38" />
              <mxPoint x="1990.6" y="1394.38" />
            </Array>
          </mxGeometry>
        </mxCell>
        <mxCell id="31" value="&lt;div style=&quot;font-size: 1px&quot;&gt;&lt;font style=&quot;font-size:16.93px;font-family:Calibri;color:#000000;direction:ltr;letter-spacing:0px;line-height:120%;opacity:1&quot;&gt;USB Serial&lt;br/&gt;&lt;/font&gt;&lt;/div&gt;" style="vsdxID=51;edgeStyle=none;startArrow=none;endArrow=block;startSize=5;endSize=5;strokeWidth=2;strokeColor=#000000;spacingTop=0;spacingBottom=0;spacingLeft=0;spacingRight=0;verticalAlign=middle;html=1;labelBackgroundColor=#ffffff;rounded=0;align=center;exitX=0;exitY=0.5061728395061729;exitDx=0;exitDy=0;exitPerimeter=0;entryX=0.6881188118811881;entryY=0;entryDx=0;entryDy=0;entryPerimeter=0;" parent="1" source="12" target="2" edge="1">
          <mxGeometry relative="1" as="geometry">
            <mxPoint x="2" y="36" as="offset" />
            <Array as="points">
              <mxPoint x="1687" y="911" />
            </Array>
          </mxGeometry>
        </mxCell>
        <mxCell id="32" style="vsdxID=49;edgeStyle=none;startArrow=block;endArrow=block;startSize=5;endSize=5;strokeWidth=2;strokeColor=#000000;spacingTop=0;spacingBottom=0;spacingLeft=0;spacingRight=0;verticalAlign=middle;html=1;labelBackgroundColor=#ffffff;rounded=0;exitX=0.31683168316831684;exitY=0;exitDx=0;exitDy=0;exitPerimeter=0;entryX=0.5;entryY=0.5;entryDx=0;entryDy=0;entryPerimeter=0;" parent="1" source="2" target="18" edge="1">
          <mxGeometry relative="1" as="geometry">
            <mxPoint as="offset" />
            <Array as="points">
              <mxPoint x="1612" y="910.87" />
            </Array>
          </mxGeometry>
        </mxCell>
        <mxCell id="33" value="&lt;div style=&quot;font-size: 1px&quot;&gt;&lt;font style=&quot;font-size:16.93px;font-family:Calibri;color:#000000;direction:ltr;letter-spacing:0px;line-height:120%;opacity:1&quot;&gt;24V&lt;br/&gt;&lt;/font&gt;&lt;/div&gt;" style="vsdxID=41;edgeStyle=none;startArrow=none;endArrow=block;startSize=5;endSize=5;strokeWidth=2;strokeColor=#000000;spacingTop=0;spacingBottom=0;spacingLeft=0;spacingRight=0;verticalAlign=middle;html=1;labelBackgroundColor=#ffffff;rounded=0;align=center;exitX=1;exitY=0.49382716049382713;exitDx=0;exitDy=0;exitPerimeter=0;entryX=0.11842105263157894;entryY=1;entryDx=0;entryDy=0;entryPerimeter=0;" parent="1" source="14" target="3" edge="1">
          <mxGeometry relative="1" as="geometry">
            <mxPoint x="-47" y="2" as="offset" />
            <Array as="points">
              <mxPoint x="1963.67" y="1338" />
            </Array>
          </mxGeometry>
        </mxCell>
        <mxCell id="34" value="&lt;div style=&quot;font-size: 1px&quot;&gt;&lt;font style=&quot;font-size:16.93px;font-family:Calibri;color:#000000;direction:ltr;letter-spacing:0px;line-height:120%;opacity:1&quot;&gt;USB Serial&lt;br/&gt;&lt;/font&gt;&lt;/div&gt;" style="vsdxID=8;edgeStyle=none;startArrow=none;endArrow=block;startSize=5;endSize=5;strokeWidth=2;strokeColor=#000000;spacingTop=0;spacingBottom=0;spacingLeft=0;spacingRight=0;verticalAlign=middle;html=1;labelBackgroundColor=#ffffff;rounded=0;align=center;exitX=1;exitY=0.5033112582781457;exitDx=0;exitDy=0;exitPerimeter=0;entryX=0;entryY=0.5;entryDx=0;entryDy=0;entryPerimeter=0;" parent="1" source="2" target="3" edge="1">
          <mxGeometry relative="1" as="geometry">
            <mxPoint as="offset" />
            <Array as="points" />
          </mxGeometry>
        </mxCell>
        <mxCell id="35" value="&lt;div style=&quot;font-size: 1px&quot;&gt;&lt;font style=&quot;font-size:16.93px;font-family:Calibri;color:#000000;direction:ltr;letter-spacing:0px;line-height:120%;opacity:1&quot;&gt;POE+ (24V)&lt;br/&gt;&lt;/font&gt;&lt;/div&gt;" style="vsdxID=33;edgeStyle=none;startArrow=none;endArrow=block;startSize=5;endSize=5;strokeWidth=2;strokeColor=#000000;spacingTop=0;spacingBottom=0;spacingLeft=0;spacingRight=0;verticalAlign=middle;html=1;labelBackgroundColor=#ffffff;rounded=0;align=center;exitX=1;exitY=0.34210526315789475;exitDx=0;exitDy=0;exitPerimeter=0;entryX=0;entryY=0.4946236559139785;entryDx=0;entryDy=0;entryPerimeter=0;" parent="1" source="3" target="4" edge="1">
          <mxGeometry relative="1" as="geometry">
            <mxPoint x="64" y="-4" as="offset" />
            <Array as="points">
              <mxPoint x="2187" y="1115" />
              <mxPoint x="2187" y="1072.7" />
            </Array>
          </mxGeometry>
        </mxCell>
        <mxCell id="36" value="&lt;div style=&quot;font-size: 1px&quot;&gt;&lt;font style=&quot;font-size:16.93px;font-family:Calibri;color:#000000;direction:ltr;letter-spacing:0px;line-height:120%;opacity:1&quot;&gt;POE+ (24V)&lt;br/&gt;&lt;/font&gt;&lt;/div&gt;" style="vsdxID=34;edgeStyle=none;startArrow=none;endArrow=block;startSize=5;endSize=5;strokeWidth=2;strokeColor=#000000;spacingTop=0;spacingBottom=0;spacingLeft=0;spacingRight=0;verticalAlign=middle;html=1;labelBackgroundColor=#ffffff;rounded=0;align=center;exitX=1;exitY=0.6754385964912281;exitDx=0;exitDy=0;exitPerimeter=0;entryX=0;entryY=0.4946236559139785;entryDx=0;entryDy=0;entryPerimeter=0;" parent="1" source="3" target="5" edge="1">
          <mxGeometry relative="1" as="geometry">
            <mxPoint x="64" y="1" as="offset" />
            <Array as="points">
              <mxPoint x="2187" y="1153" />
              <mxPoint x="2187" y="1195.7" />
            </Array>
          </mxGeometry>
        </mxCell>
        <mxCell id="37" style="vsdxID=53;edgeStyle=none;startArrow=block;endArrow=block;startSize=5;endSize=5;strokeWidth=2;strokeColor=#000000;spacingTop=0;spacingBottom=0;spacingLeft=0;spacingRight=0;verticalAlign=middle;html=1;labelBackgroundColor=#ffffff;rounded=0;exitX=1;exitY=0.5061728395061729;exitDx=0;exitDy=0;exitPerimeter=0;entryX=0.5;entryY=0.5;entryDx=0;entryDy=0;entryPerimeter=0;" parent="1" source="28" target="23" edge="1">
          <mxGeometry relative="1" as="geometry">
            <mxPoint as="offset" />
            <Array as="points" />
          </mxGeometry>
        </mxCell>
        <mxCell id="38" style="vsdxID=52;edgeStyle=none;startArrow=none;endArrow=block;startSize=5;endSize=5;strokeWidth=2;strokeColor=#000000;spacingTop=0;spacingBottom=0;spacingLeft=0;spacingRight=0;verticalAlign=middle;html=1;labelBackgroundColor=#ffffff;rounded=0;exitX=0.5;exitY=1;exitDx=0;exitDy=0;exitPerimeter=0;entryX=0.5;entryY=0;entryDx=0;entryDy=0;entryPerimeter=0;" parent="1" source="13" target="12" edge="1">
          <mxGeometry relative="1" as="geometry">
            <mxPoint x="10" y="-1" as="offset" />
            <Array as="points" />
          </mxGeometry>
        </mxCell>
        <mxCell id="39" value="&lt;div style=&quot;font-size: 1px&quot;&gt;&lt;font style=&quot;font-size:16.93px;font-family:Calibri;color:#000000;direction:ltr;letter-spacing:0px;line-height:120%;opacity:1&quot;&gt;Wifi&lt;br/&gt;&lt;/font&gt;&lt;/div&gt;" style="vsdxID=50;edgeStyle=none;dashed=1;startArrow=block;endArrow=block;startSize=5;endSize=5;strokeWidth=3;strokeColor=#ffffff;spacingTop=0;spacingBottom=0;spacingLeft=0;spacingRight=0;verticalAlign=middle;html=1;labelBackgroundColor=#ffffff;rounded=0;align=center;exitX=0.5;exitY=0.5;exitDx=0;exitDy=0;exitPerimeter=0;entryX=0.5;entryY=0.5;entryDx=0;entryDy=0;entryPerimeter=0;" parent="1" source="18" target="23" edge="1">
          <mxGeometry relative="1" as="geometry">
            <mxPoint as="offset" />
            <Array as="points" />
          </mxGeometry>
        </mxCell>
        <mxCell id="40" value="&lt;div style=&quot;font-size: 1px&quot;&gt;&lt;font style=&quot;font-size:16.93px;font-family:Calibri;color:#000000;direction:ltr;letter-spacing:0px;line-height:120%;opacity:1&quot;&gt;120V/60Hz&lt;br/&gt;&lt;/font&gt;&lt;/div&gt;" style="vsdxID=45;edgeStyle=none;startArrow=none;endArrow=block;startSize=5;endSize=5;strokeWidth=2;strokeColor=#000000;spacingTop=0;spacingBottom=0;spacingLeft=0;spacingRight=0;verticalAlign=middle;html=1;labelBackgroundColor=#ffffff;rounded=0;align=center;exitX=1;exitY=0.5;exitDx=0;exitDy=0;exitPerimeter=0;entryX=0;entryY=0.49382716049382713;entryDx=0;entryDy=0;entryPerimeter=0;" parent="1" source="17" target="16" edge="1">
          <mxGeometry relative="1" as="geometry">
            <mxPoint x="-1" as="offset" />
            <Array as="points" />
          </mxGeometry>
        </mxCell>
        <mxCell id="41" style="vsdxID=44;edgeStyle=none;startArrow=none;endArrow=block;startSize=5;endSize=5;strokeWidth=2;strokeColor=#000000;spacingTop=0;spacingBottom=0;spacingLeft=0;spacingRight=0;verticalAlign=middle;html=1;labelBackgroundColor=#ffffff;rounded=0;exitX=1;exitY=0.49382716049382713;exitDx=0;exitDy=0;exitPerimeter=0;entryX=0;entryY=0.5033112582781457;entryDx=0;entryDy=0;entryPerimeter=0;" parent="1" source="16" target="2" edge="1">
          <mxGeometry relative="1" as="geometry">
            <mxPoint as="offset" />
            <Array as="points">
              <mxPoint x="1476.61" y="1132" />
              <mxPoint x="1476.61" y="1132.5" />
            </Array>
          </mxGeometry>
        </mxCell>
        <mxCell id="42" value="&lt;div style=&quot;font-size: 1px&quot;&gt;&lt;font style=&quot;font-size:16.93px;font-family:Calibri;color:#000000;direction:ltr;letter-spacing:0px;line-height:120%;opacity:1&quot;&gt;120V/60Hz&lt;br/&gt;&lt;/font&gt;&lt;/div&gt;" style="vsdxID=43;edgeStyle=none;startArrow=none;endArrow=block;startSize=5;endSize=5;strokeWidth=2;strokeColor=#000000;spacingTop=0;spacingBottom=0;spacingLeft=0;spacingRight=0;verticalAlign=middle;html=1;labelBackgroundColor=#ffffff;rounded=0;align=center;exitX=1;exitY=0.5;exitDx=0;exitDy=0;exitPerimeter=0;entryX=0;entryY=0.49382716049382713;entryDx=0;entryDy=0;entryPerimeter=0;" parent="1" source="15" target="14" edge="1">
          <mxGeometry relative="1" as="geometry">
            <mxPoint as="offset" />
            <Array as="points" />
          </mxGeometry>
        </mxCell>
        <mxCell id="43" value="&lt;div style=&quot;font-size: 1px&quot;&gt;&lt;font style=&quot;font-size:16.93px;font-family:Calibri;color:#000000;direction:ltr;letter-spacing:0px;line-height:120%;opacity:1&quot;&gt;2-Phase Motor&lt;br/&gt;&lt;/font&gt;&lt;/div&gt;" style="vsdxID=40;edgeStyle=none;startArrow=none;endArrow=block;startSize=5;endSize=5;strokeWidth=2;strokeColor=#000000;spacingTop=0;spacingBottom=0;spacingLeft=0;spacingRight=0;verticalAlign=middle;html=1;labelBackgroundColor=#ffffff;rounded=0;align=center;exitX=1;exitY=0.4946236559139785;exitDx=0;exitDy=0;exitPerimeter=0;entryX=0;entryY=0.4927536231884058;entryDx=0;entryDy=0;entryPerimeter=0;" parent="1" source="7" target="11" edge="1">
          <mxGeometry relative="1" as="geometry">
            <mxPoint as="offset" />
            <Array as="points">
              <mxPoint x="2417" y="1318" />
              <mxPoint x="2417" y="1318" />
            </Array>
          </mxGeometry>
        </mxCell>
        <mxCell id="44" value="&lt;div style=&quot;font-size: 1px&quot;&gt;&lt;font style=&quot;font-size:16.93px;font-family:Calibri;color:#000000;direction:ltr;letter-spacing:0px;line-height:120%;opacity:1&quot;&gt;2-Phase Motor&lt;br/&gt;&lt;/font&gt;&lt;/div&gt;" style="vsdxID=39;edgeStyle=none;startArrow=none;endArrow=block;startSize=5;endSize=5;strokeWidth=2;strokeColor=#000000;spacingTop=0;spacingBottom=0;spacingLeft=0;spacingRight=0;verticalAlign=middle;html=1;labelBackgroundColor=#ffffff;rounded=0;align=center;exitX=1;exitY=0.4946236559139785;exitDx=0;exitDy=0;exitPerimeter=0;entryX=0;entryY=0.4927536231884058;entryDx=0;entryDy=0;entryPerimeter=0;" parent="1" source="5" target="10" edge="1">
          <mxGeometry relative="1" as="geometry">
            <mxPoint as="offset" />
            <Array as="points" />
          </mxGeometry>
        </mxCell>
        <mxCell id="45" value="&lt;div style=&quot;font-size: 1px&quot;&gt;&lt;font style=&quot;font-size:16.93px;font-family:Calibri;color:#000000;direction:ltr;letter-spacing:0px;line-height:120%;opacity:1&quot;&gt;2-Phase Motor&lt;br/&gt;&lt;/font&gt;&lt;/div&gt;" style="vsdxID=38;edgeStyle=none;startArrow=none;endArrow=block;startSize=5;endSize=5;strokeWidth=2;strokeColor=#000000;spacingTop=0;spacingBottom=0;spacingLeft=0;spacingRight=0;verticalAlign=middle;html=1;labelBackgroundColor=#ffffff;rounded=0;align=center;exitX=1;exitY=0.4946236559139785;exitDx=0;exitDy=0;exitPerimeter=0;entryX=0;entryY=0.4927536231884058;entryDx=0;entryDy=0;entryPerimeter=0;" parent="1" source="4" target="9" edge="1">
          <mxGeometry relative="1" as="geometry">
            <mxPoint as="offset" />
            <Array as="points" />
          </mxGeometry>
        </mxCell>
        <mxCell id="46" value="&lt;div style=&quot;font-size: 1px&quot;&gt;&lt;font style=&quot;font-size:16.93px;font-family:Calibri;color:#000000;direction:ltr;letter-spacing:0px;line-height:120%;opacity:1&quot;&gt;2-Phase Motor&lt;br/&gt;&lt;/font&gt;&lt;/div&gt;" style="vsdxID=37;edgeStyle=none;startArrow=none;endArrow=block;startSize=5;endSize=5;strokeWidth=2;strokeColor=#000000;spacingTop=0;spacingBottom=0;spacingLeft=0;spacingRight=0;verticalAlign=middle;html=1;labelBackgroundColor=#ffffff;rounded=0;align=center;exitX=1;exitY=0.4946236559139785;exitDx=0;exitDy=0;exitPerimeter=0;entryX=0;entryY=0.4927536231884058;entryDx=0;entryDy=0;entryPerimeter=0;" parent="1" source="6" target="8" edge="1">
          <mxGeometry relative="1" as="geometry">
            <mxPoint as="offset" />
            <Array as="points">
              <mxPoint x="2417" y="949" />
              <mxPoint x="2417" y="949" />
            </Array>
          </mxGeometry>
        </mxCell>
        <mxCell id="47" value="&lt;div style=&quot;font-size: 1px&quot;&gt;&lt;font style=&quot;font-size:16.93px;font-family:Calibri;color:#000000;direction:ltr;letter-spacing:0px;line-height:120%;opacity:1&quot;&gt;POE+ (24V)&lt;br/&gt;&lt;/font&gt;&lt;/div&gt;" style="vsdxID=36;edgeStyle=none;startArrow=none;endArrow=block;startSize=5;endSize=5;strokeWidth=2;strokeColor=#000000;spacingTop=0;spacingBottom=0;spacingLeft=0;spacingRight=0;verticalAlign=middle;html=1;labelBackgroundColor=#ffffff;rounded=0;align=center;exitX=0.5;exitY=1;exitDx=0;exitDy=0;exitPerimeter=0;entryX=0;entryY=0.4946236559139785;entryDx=0;entryDy=0;entryPerimeter=0;" parent="1" source="3" target="7" edge="1">
          <mxGeometry relative="1" as="geometry">
            <mxPoint x="56" y="2" as="offset" />
            <Array as="points">
              <mxPoint x="2021" y="1318.5" />
            </Array>
          </mxGeometry>
        </mxCell>
        <mxCell id="48" value="&lt;div style=&quot;font-size: 1px&quot;&gt;&lt;font style=&quot;font-size:16.93px;font-family:Calibri;color:#000000;direction:ltr;letter-spacing:0px;line-height:120%;opacity:1&quot;&gt;POE+ (24V)&lt;br/&gt;&lt;/font&gt;&lt;/div&gt;" style="vsdxID=35;edgeStyle=none;startArrow=none;endArrow=block;startSize=5;endSize=5;strokeWidth=2;strokeColor=#000000;spacingTop=0;spacingBottom=0;spacingLeft=0;spacingRight=0;verticalAlign=middle;html=1;labelBackgroundColor=#ffffff;rounded=0;align=center;exitX=0.5;exitY=0;exitDx=0;exitDy=0;exitPerimeter=0;entryX=0;entryY=0.4946236559139785;entryDx=0;entryDy=0;entryPerimeter=0;" parent="1" source="3" target="6" edge="1">
          <mxGeometry relative="1" as="geometry">
            <mxPoint x="60" y="-3" as="offset" />
            <Array as="points">
              <mxPoint x="2021" y="949.5" />
            </Array>
          </mxGeometry>
        </mxCell>
      </root>
    </mxGraphModel>
  </diagram>
  <diagram name="Hardware - Integrated Stepper Driver" id="Hardware_-_Integrated_Stepper_Driver">
    <mxGraphModel dx="1422" dy="780" grid="1" gridSize="10" guides="1" tooltips="1" connect="1" arrows="1" fold="1" page="1" pageScale="1" pageWidth="850" pageHeight="1100" math="0" shadow="0">
      <root>
        <mxCell id="0" />
        <mxCell id="1" parent="0" />
      </root>
    </mxGraphModel>
  </diagram>
  <diagram name="Hardware - ESP32 GRBL Controller" id="Hardware_-_ESP32_GRBL_Controller">
    <mxGraphModel dx="2370" dy="1300" grid="1" gridSize="10" guides="1" tooltips="1" connect="1" arrows="1" fold="1" page="1" pageScale="1" pageWidth="850" pageHeight="1100" math="0" shadow="0">
      <root>
        <mxCell id="0" />
        <mxCell id="1" value="Connector" parent="0" />
        <mxCell id="2" value="&lt;div style=&quot;font-size: 1px&quot;&gt;&lt;font style=&quot;font-size:14.11px;font-family:Calibri;color:#000000;direction:ltr;letter-spacing:0px;line-height:120%;opacity:1&quot;&gt;ESP32 MCU&lt;br/&gt;&lt;/font&gt;&lt;/div&gt;" style="verticalAlign=middle;align=center;vsdxID=1;fillColor=#dae8fc;gradientColor=#7ea6e0;shape=stencil(vVTLcsMgDPwajmYIavw4p+l/MA22mVLjkUnj/n3xKG5jbHrK+KbHIrGLEIPT0KpeMykGj+5D38zFtwxemZSmazUaHywGZwan2qFu0F27C/m9mpCT9em+pgojnTuI6YgU37NL/hthrekesNXTsArfQw5/78AloXGGAz9WFBqXBeaCZc7z4o7I1GiGDJ1X3riO8ne0VdjoLLTLaquaRWq4ad2vwptk4ubhegBpPhWHIuIj+XFBJ5JH7MVks2+C8zOQsTBluXroQ7FQJqX0DuKkJiw1tKJakXnJo6nd/AW7jOx//y8YfwuhNtbSPnnMxwskhGj5wPkH);strokeColor=#6c8ebf;strokeWidth=2;points=[[1,0.5,0],[0.5,0.5,0],[0.5,0,0],[0.03,0.04,0],[0.97,0.04,0],[0.03,0.96,0],[0.97,0.96,0]];labelBackgroundColor=none;rounded=0;html=1;whiteSpace=wrap;" parent="1" vertex="1">
          <mxGeometry x="492" y="1026" width="121" height="91" as="geometry" />
        </mxCell>
        <mxCell id="aFGjaNq-tXqF2wFX-RCe-33" style="edgeStyle=orthogonalEdgeStyle;rounded=0;orthogonalLoop=1;jettySize=auto;html=1;exitX=1;exitY=0.5;exitDx=0;exitDy=0;exitPerimeter=0;entryX=0.003;entryY=0.505;entryDx=0;entryDy=0;entryPerimeter=0;" edge="1" parent="1" source="3" target="5">
          <mxGeometry relative="1" as="geometry">
            <mxPoint x="260" y="1071.6666666666667" as="targetPoint" />
          </mxGeometry>
        </mxCell>
        <mxCell id="3" value="&lt;div style=&quot;font-size: 1px&quot;&gt;&lt;font style=&quot;font-size:14.11px;font-family:Calibri;color:#000000;direction:ltr;letter-spacing:0px;line-height:120%;opacity:1&quot;&gt;USB Connector&lt;br/&gt;&lt;/font&gt;&lt;/div&gt;" style="verticalAlign=middle;align=center;vsdxID=2;fillColor=#d5e8d4;gradientColor=#97d077;shape=stencil(vVTLcsMgDPwajmYIavw4p+l/MA22mVLjkUnj/n3xKG5jbHrK+KbHIrGLEIPT0KpeMykGj+5D38zFtwxemZSmazUaHywGZwan2qFu0F27C/m9mpCT9em+pgojnTuI6YgU37NL/hthrekesNXTsArfQw5/78AloXGGAz9WFBqXBeaCZc7z4o7I1GiGDJ1X3riO8ne0VdjoLLTLaquaRWq4ad2vwptk4ubhegBpPhWHIuIj+XFBJ5JH7MVks2+C8zOQsTBluXroQ7FQJqX0DuKkJiw1tKJakXnJo6nd/AW7jOx//y8YfwuhNtbSPnnMxwskhGj5wPkH);strokeColor=#82b366;strokeWidth=2;points=[[1,0.5,0],[0.5,0.5,0],[0.5,0,0],[0.03,0.04,0],[0.97,0.04,0],[0.03,0.96,0],[0.97,0.96,0]];labelBackgroundColor=none;rounded=0;html=1;whiteSpace=wrap;" parent="1" vertex="1">
          <mxGeometry x="82" y="1026" width="121" height="91" as="geometry" />
        </mxCell>
        <mxCell id="4" value="&lt;div style=&quot;font-size: 1px&quot;&gt;&lt;font style=&quot;font-size:14.11px;font-family:Calibri;color:#000000;direction:ltr;letter-spacing:0px;line-height:120%;opacity:1&quot;&gt;I2S Bit Shifter&lt;br/&gt;&lt;/font&gt;&lt;/div&gt;" style="verticalAlign=middle;align=center;vsdxID=3;fillColor=#dae8fc;gradientColor=#7ea6e0;shape=stencil(vVTLcsMgDPwajmYIavw4p+l/MA22mVLjkUnj/n3xKG5jbHrK+KbHIrGLEIPT0KpeMykGj+5D38zFtwxemZSmazUaHywGZwan2qFu0F27C/m9mpCT9em+pgojnTuI6YgU37NL/hthrekesNXTsArfQw5/78AloXGGAz9WFBqXBeaCZc7z4o7I1GiGDJ1X3riO8ne0VdjoLLTLaquaRWq4ad2vwptk4ubhegBpPhWHIuIj+XFBJ5JH7MVks2+C8zOQsTBluXroQ7FQJqX0DuKkJiw1tKJakXnJo6nd/AW7jOx//y8YfwuhNtbSPnnMxwskhGj5wPkH);strokeColor=#6c8ebf;strokeWidth=2;points=[[1,0.5,0],[0.5,0.5,0],[0.5,0,0],[0.03,0.04,0],[0.97,0.04,0],[0.03,0.96,0],[0.97,0.96,0]];labelBackgroundColor=none;rounded=0;html=1;whiteSpace=wrap;" parent="1" vertex="1">
          <mxGeometry x="729" y="1026" width="121" height="91" as="geometry" />
        </mxCell>
        <mxCell id="5" value="&lt;div style=&quot;font-size: 1px&quot;&gt;&lt;font style=&quot;font-size:14.11px;font-family:Calibri;color:#000000;direction:ltr;letter-spacing:0px;line-height:120%;opacity:1&quot;&gt;USB â€“ Serial Converter&lt;br/&gt;&lt;/font&gt;&lt;/div&gt;" style="verticalAlign=middle;align=center;vsdxID=4;fillColor=#dae8fc;gradientColor=#7ea6e0;shape=stencil(vVTLcsMgDPwajmYIavw4p+l/MA22mVLjkUnj/n3xKG5jbHrK+KbHIrGLEIPT0KpeMykGj+5D38zFtwxemZSmazUaHywGZwan2qFu0F27C/m9mpCT9em+pgojnTuI6YgU37NL/hthrekesNXTsArfQw5/78AloXGGAz9WFBqXBeaCZc7z4o7I1GiGDJ1X3riO8ne0VdjoLLTLaquaRWq4ad2vwptk4ubhegBpPhWHIuIj+XFBJ5JH7MVks2+C8zOQsTBluXroQ7FQJqX0DuKkJiw1tKJakXnJo6nd/AW7jOx//y8YfwuhNtbSPnnMxwskhGj5wPkH);strokeColor=#6c8ebf;strokeWidth=2;points=[[1,0.5,0],[0.5,0.5,0],[0.5,0,0],[0.03,0.04,0],[0.97,0.04,0],[0.03,0.96,0],[0.97,0.96,0]];labelBackgroundColor=none;rounded=0;html=1;whiteSpace=wrap;" parent="1" vertex="1">
          <mxGeometry x="282" y="1026" width="121" height="91" as="geometry" />
        </mxCell>
        <mxCell id="6" value="&lt;div style=&quot;font-size: 1px&quot;&gt;&lt;font style=&quot;font-size:14.11px;font-family:Calibri;color:#000000;direction:ltr;letter-spacing:0px;line-height:120%;opacity:1&quot;&gt;I2S Bit Shifter&lt;br/&gt;&lt;/font&gt;&lt;/div&gt;" style="verticalAlign=middle;align=center;vsdxID=5;fillColor=#dae8fc;gradientColor=#7ea6e0;shape=stencil(vVTLcsMgDPwajmYIavw4p+l/MA22mVLjkUnj/n3xKG5jbHrK+KbHIrGLEIPT0KpeMykGj+5D38zFtwxemZSmazUaHywGZwan2qFu0F27C/m9mpCT9em+pgojnTuI6YgU37NL/hthrekesNXTsArfQw5/78AloXGGAz9WFBqXBeaCZc7z4o7I1GiGDJ1X3riO8ne0VdjoLLTLaquaRWq4ad2vwptk4ubhegBpPhWHIuIj+XFBJ5JH7MVks2+C8zOQsTBluXroQ7FQJqX0DuKkJiw1tKJakXnJo6nd/AW7jOx//y8YfwuhNtbSPnnMxwskhGj5wPkH);strokeColor=#6c8ebf;strokeWidth=2;points=[[1,0.5,0],[0.5,0.5,0],[0.5,0,0],[0.03,0.04,0],[0.97,0.04,0],[0.03,0.96,0],[0.97,0.96,0]];labelBackgroundColor=none;rounded=0;html=1;whiteSpace=wrap;" parent="1" vertex="1">
          <mxGeometry x="729" y="1224" width="121" height="91" as="geometry" />
        </mxCell>
        <mxCell id="7" value="&lt;div style=&quot;font-size: 1px&quot;&gt;&lt;font style=&quot;font-size:14.11px;font-family:Calibri;color:#000000;direction:ltr;letter-spacing:0px;line-height:120%;opacity:1&quot;&gt;24V â€“ 5V DC Converter&lt;br/&gt;&lt;/font&gt;&lt;/div&gt;" style="verticalAlign=middle;align=center;vsdxID=6;fillColor=#dae8fc;gradientColor=#7ea6e0;shape=stencil(vVTLcsMgDPwajmYIavw4p+l/MA22mVLjkUnj/n3xKG5jbHrK+KbHIrGLEIPT0KpeMykGj+5D38zFtwxemZSmazUaHywGZwan2qFu0F27C/m9mpCT9em+pgojnTuI6YgU37NL/hthrekesNXTsArfQw5/78AloXGGAz9WFBqXBeaCZc7z4o7I1GiGDJ1X3riO8ne0VdjoLLTLaquaRWq4ad2vwptk4ubhegBpPhWHIuIj+XFBJ5JH7MVks2+C8zOQsTBluXroQ7FQJqX0DuKkJiw1tKJakXnJo6nd/AW7jOx//y8YfwuhNtbSPnnMxwskhGj5wPkH);strokeColor=#6c8ebf;strokeWidth=2;points=[[1,0.5,0],[0.5,0.5,0],[0.5,0,0],[0.03,0.04,0],[0.97,0.04,0],[0.03,0.96,0],[0.97,0.96,0]];labelBackgroundColor=none;rounded=0;html=1;whiteSpace=wrap;" parent="1" vertex="1">
          <mxGeometry x="282" y="1240" width="121" height="91" as="geometry" />
        </mxCell>
        <mxCell id="8" value="&lt;div style=&quot;font-size: 1px&quot;&gt;&lt;font style=&quot;font-size:14.11px;font-family:Calibri;color:#000000;direction:ltr;letter-spacing:0px;line-height:120%;opacity:1&quot;&gt;5V â€“ 3.3V DC Converter&lt;br/&gt;&lt;/font&gt;&lt;/div&gt;" style="verticalAlign=middle;align=center;vsdxID=7;fillColor=#dae8fc;gradientColor=#7ea6e0;shape=stencil(vVTLcsMgDPwajmYIavw4p+l/MA22mVLjkUnj/n3xKG5jbHrK+KbHIrGLEIPT0KpeMykGj+5D38zFtwxemZSmazUaHywGZwan2qFu0F27C/m9mpCT9em+pgojnTuI6YgU37NL/hthrekesNXTsArfQw5/78AloXGGAz9WFBqXBeaCZc7z4o7I1GiGDJ1X3riO8ne0VdjoLLTLaquaRWq4ad2vwptk4ubhegBpPhWHIuIj+XFBJ5JH7MVks2+C8zOQsTBluXroQ7FQJqX0DuKkJiw1tKJakXnJo6nd/AW7jOx//y8YfwuhNtbSPnnMxwskhGj5wPkH);strokeColor=#6c8ebf;strokeWidth=2;points=[[1,0.5,0],[0.5,0.5,0],[0.5,0,0],[0.03,0.04,0],[0.97,0.04,0],[0.03,0.96,0],[0.97,0.96,0]];labelBackgroundColor=none;rounded=0;html=1;whiteSpace=wrap;" parent="1" vertex="1">
          <mxGeometry x="492" y="1240" width="121" height="91" as="geometry" />
        </mxCell>
        <mxCell id="9" value="&lt;div style=&quot;font-size: 1px&quot;&gt;&lt;font style=&quot;font-size:14.11px;font-family:Calibri;color:#000000;direction:ltr;letter-spacing:0px;line-height:120%;opacity:1&quot;&gt;24V Connector&lt;br/&gt;&lt;/font&gt;&lt;/div&gt;" style="verticalAlign=middle;align=center;vsdxID=8;fillColor=#d5e8d4;gradientColor=#97d077;shape=stencil(vVTLcsMgDPwajmYIavw4p+l/MA22mVLjkUnj/n3xKG5jbHrK+KbHIrGLEIPT0KpeMykGj+5D38zFtwxemZSmazUaHywGZwan2qFu0F27C/m9mpCT9em+pgojnTuI6YgU37NL/hthrekesNXTsArfQw5/78AloXGGAz9WFBqXBeaCZc7z4o7I1GiGDJ1X3riO8ne0VdjoLLTLaquaRWq4ad2vwptk4ubhegBpPhWHIuIj+XFBJ5JH7MVks2+C8zOQsTBluXroQ7FQJqX0DuKkJiw1tKJakXnJo6nd/AW7jOx//y8YfwuhNtbSPnnMxwskhGj5wPkH);strokeColor=#82b366;strokeWidth=2;points=[[1,0.5,0],[0.5,0.5,0],[0.5,0,0],[0.03,0.04,0],[0.97,0.04,0],[0.03,0.96,0],[0.97,0.96,0]];labelBackgroundColor=none;rounded=0;html=1;whiteSpace=wrap;" parent="1" vertex="1">
          <mxGeometry x="82" y="1240" width="121" height="91" as="geometry" />
        </mxCell>
        <mxCell id="10" value="&lt;div style=&quot;font-size: 1px&quot;&gt;&lt;font style=&quot;font-size:14.11px;font-family:Calibri;color:#000000;direction:ltr;letter-spacing:0px;line-height:120%;opacity:1&quot;&gt;POE+ Output&lt;br/&gt;&lt;/font&gt;&lt;/div&gt;" style="verticalAlign=middle;align=center;vsdxID=19;fillColor=#ffffff;gradientColor=none;shape=stencil(vVTLcsMgDPwajmYIavw4p+l/MA22mVLjkUnj/n3xKG5jbHrK+KbHIrGLEIPT0KpeMykGj+5D38zFtwxemZSmazUaHywGZwan2qFu0F27C/m9mpCT9em+pgojnTuI6YgU37NL/hthrekesNXTsArfQw5/78AloXGGAz9WFBqXBeaCZc7z4o7I1GiGDJ1X3riO8ne0VdjoLLTLaquaRWq4ad2vwptk4ubhegBpPhWHIuIj+XFBJ5JH7MVks2+C8zOQsTBluXroQ7FQJqX0DuKkJiw1tKJakXnJo6nd/AW7jOx//y8YfwuhNtbSPnnMxwskhGj5wPkH);strokeColor=#000000;strokeWidth=2;points=[[1,0.5,0],[0.5,0.5,0],[0.5,0,0],[0.03,0.04,0],[0.97,0.04,0],[0.03,0.96,0],[0.97,0.96,0]];labelBackgroundColor=none;rounded=0;html=1;whiteSpace=wrap;" parent="1" vertex="1">
          <mxGeometry x="956" y="700" width="121" height="91" as="geometry" />
        </mxCell>
        <mxCell id="11" value="&lt;div style=&quot;font-size: 1px&quot;&gt;&lt;font style=&quot;font-size:14.11px;font-family:Calibri;color:#000000;direction:ltr;letter-spacing:0px;line-height:120%;opacity:1&quot;&gt;POE+ Output&lt;br/&gt;&lt;/font&gt;&lt;/div&gt;" style="verticalAlign=middle;align=center;vsdxID=20;fillColor=#ffffff;gradientColor=none;shape=stencil(vVTLcsMgDPwajmYIavw4p+l/MA22mVLjkUnj/n3xKG5jbHrK+KbHIrGLEIPT0KpeMykGj+5D38zFtwxemZSmazUaHywGZwan2qFu0F27C/m9mpCT9em+pgojnTuI6YgU37NL/hthrekesNXTsArfQw5/78AloXGGAz9WFBqXBeaCZc7z4o7I1GiGDJ1X3riO8ne0VdjoLLTLaquaRWq4ad2vwptk4ubhegBpPhWHIuIj+XFBJ5JH7MVks2+C8zOQsTBluXroQ7FQJqX0DuKkJiw1tKJakXnJo6nd/AW7jOx//y8YfwuhNtbSPnnMxwskhGj5wPkH);strokeColor=#000000;strokeWidth=2;points=[[1,0.5,0],[0.5,0.5,0],[0.5,0,0],[0.03,0.04,0],[0.97,0.04,0],[0.03,0.96,0],[0.97,0.96,0]];labelBackgroundColor=none;rounded=0;html=1;whiteSpace=wrap;" parent="1" vertex="1">
          <mxGeometry x="956" y="957" width="121" height="91" as="geometry" />
        </mxCell>
        <mxCell id="12" value="&lt;div style=&quot;font-size: 1px&quot;&gt;&lt;font style=&quot;font-size:14.11px;font-family:Calibri;color:#000000;direction:ltr;letter-spacing:0px;line-height:120%;opacity:1&quot;&gt;POE+ Output&lt;br/&gt;&lt;/font&gt;&lt;/div&gt;" style="verticalAlign=middle;align=center;vsdxID=21;fillColor=#ffffff;gradientColor=none;shape=stencil(vVTLcsMgDPwajmYIavw4p+l/MA22mVLjkUnj/n3xKG5jbHrK+KbHIrGLEIPT0KpeMykGj+5D38zFtwxemZSmazUaHywGZwan2qFu0F27C/m9mpCT9em+pgojnTuI6YgU37NL/hthrekesNXTsArfQw5/78AloXGGAz9WFBqXBeaCZc7z4o7I1GiGDJ1X3riO8ne0VdjoLLTLaquaRWq4ad2vwptk4ubhegBpPhWHIuIj+XFBJ5JH7MVks2+C8zOQsTBluXroQ7FQJqX0DuKkJiw1tKJakXnJo6nd/AW7jOx//y8YfwuhNtbSPnnMxwskhGj5wPkH);strokeColor=#000000;strokeWidth=2;points=[[1,0.5,0],[0.5,0.5,0],[0.5,0,0],[0.03,0.04,0],[0.97,0.04,0],[0.03,0.96,0],[0.97,0.96,0]];labelBackgroundColor=none;rounded=0;html=1;whiteSpace=wrap;" parent="1" vertex="1">
          <mxGeometry x="956" y="828" width="121" height="91" as="geometry" />
        </mxCell>
        <mxCell id="13" value="&lt;div style=&quot;font-size: 1px&quot;&gt;&lt;font style=&quot;font-size:14.11px;font-family:Calibri;color:#000000;direction:ltr;letter-spacing:0px;line-height:120%;opacity:1&quot;&gt;POE+ Output&lt;br/&gt;&lt;/font&gt;&lt;/div&gt;" style="verticalAlign=middle;align=center;vsdxID=22;fillColor=#ffffff;gradientColor=none;shape=stencil(vVTLcsMgDPwajmYIavw4p+l/MA22mVLjkUnj/n3xKG5jbHrK+KbHIrGLEIPT0KpeMykGj+5D38zFtwxemZSmazUaHywGZwan2qFu0F27C/m9mpCT9em+pgojnTuI6YgU37NL/hthrekesNXTsArfQw5/78AloXGGAz9WFBqXBeaCZc7z4o7I1GiGDJ1X3riO8ne0VdjoLLTLaquaRWq4ad2vwptk4ubhegBpPhWHIuIj+XFBJ5JH7MVks2+C8zOQsTBluXroQ7FQJqX0DuKkJiw1tKJakXnJo6nd/AW7jOx//y8YfwuhNtbSPnnMxwskhGj5wPkH);strokeColor=#000000;strokeWidth=2;points=[[1,0.5,0],[0.5,0.5,0],[0.5,0,0],[0.03,0.04,0],[0.97,0.04,0],[0.03,0.96,0],[0.97,0.96,0]];labelBackgroundColor=none;rounded=0;html=1;whiteSpace=wrap;" parent="1" vertex="1">
          <mxGeometry x="956" y="1086" width="121" height="91" as="geometry" />
        </mxCell>
        <mxCell id="14" value="&lt;div style=&quot;font-size: 1px&quot;&gt;&lt;font style=&quot;font-size:14.11px;font-family:Calibri;color:#000000;direction:ltr;letter-spacing:0px;line-height:120%;opacity:1&quot;&gt;I2S Bit Shifter&lt;br/&gt;&lt;/font&gt;&lt;/div&gt;" style="verticalAlign=middle;align=center;vsdxID=23;fillColor=#dae8fc;gradientColor=#7ea6e0;shape=stencil(vVTLcsMgDPwajmYIavw4p+l/MA22mVLjkUnj/n3xKG5jbHrK+KbHIrGLEIPT0KpeMykGj+5D38zFtwxemZSmazUaHywGZwan2qFu0F27C/m9mpCT9em+pgojnTuI6YgU37NL/hthrekesNXTsArfQw5/78AloXGGAz9WFBqXBeaCZc7z4o7I1GiGDJ1X3riO8ne0VdjoLLTLaquaRWq4ad2vwptk4ubhegBpPhWHIuIj+XFBJ5JH7MVks2+C8zOQsTBluXroQ7FQJqX0DuKkJiw1tKJakXnJo6nd/AW7jOx//y8YfwuhNtbSPnnMxwskhGj5wPkH);strokeColor=#6c8ebf;strokeWidth=2;points=[[1,0.5,0],[0.5,0.5,0],[0.5,0,0],[0.03,0.04,0],[0.97,0.04,0],[0.03,0.96,0],[0.97,0.96,0]];labelBackgroundColor=none;rounded=0;html=1;whiteSpace=wrap;" parent="1" vertex="1">
          <mxGeometry x="729" y="828" width="121" height="91" as="geometry" />
        </mxCell>
        <mxCell id="15" value="&lt;div style=&quot;font-size: 1px&quot;&gt;&lt;font style=&quot;font-size:14.11px;font-family:Calibri;color:#000000;direction:ltr;letter-spacing:0px;line-height:120%;opacity:1&quot;&gt;POE+ Output&lt;br/&gt;&lt;/font&gt;&lt;/div&gt;" style="verticalAlign=middle;align=center;vsdxID=24;fillColor=#fff2cc;gradientColor=#ffd966;shape=stencil(vVTLcsMgDPwajmYIavw4p+l/MA22mVLjkUnj/n3xKG5jbHrK+KbHIrGLEIPT0KpeMykGj+5D38zFtwxemZSmazUaHywGZwan2qFu0F27C/m9mpCT9em+pgojnTuI6YgU37NL/hthrekesNXTsArfQw5/78AloXGGAz9WFBqXBeaCZc7z4o7I1GiGDJ1X3riO8ne0VdjoLLTLaquaRWq4ad2vwptk4ubhegBpPhWHIuIj+XFBJ5JH7MVks2+C8zOQsTBluXroQ7FQJqX0DuKkJiw1tKJakXnJo6nd/AW7jOx//y8YfwuhNtbSPnnMxwskhGj5wPkH);strokeColor=#d6b656;strokeWidth=2;points=[[1,0.5,0],[0.5,0.5,0],[0.5,0,0],[0.03,0.04,0],[0.97,0.04,0],[0.03,0.96,0],[0.97,0.96,0]];labelBackgroundColor=none;rounded=0;html=1;whiteSpace=wrap;" parent="1" vertex="1">
          <mxGeometry x="956" y="1224" width="121" height="91" as="geometry" />
        </mxCell>
        <mxCell id="16" value="&lt;div style=&quot;font-size: 1px&quot;&gt;&lt;font style=&quot;font-size:14.11px;font-family:Calibri;color:#000000;direction:ltr;letter-spacing:0px;line-height:120%;opacity:1&quot;&gt;POE+ Output&lt;br/&gt;&lt;/font&gt;&lt;/div&gt;" style="verticalAlign=middle;align=center;vsdxID=25;fillColor=#fff2cc;gradientColor=#ffd966;shape=stencil(vVTLcsMgDPwajmYIavw4p+l/MA22mVLjkUnj/n3xKG5jbHrK+KbHIrGLEIPT0KpeMykGj+5D38zFtwxemZSmazUaHywGZwan2qFu0F27C/m9mpCT9em+pgojnTuI6YgU37NL/hthrekesNXTsArfQw5/78AloXGGAz9WFBqXBeaCZc7z4o7I1GiGDJ1X3riO8ne0VdjoLLTLaquaRWq4ad2vwptk4ubhegBpPhWHIuIj+XFBJ5JH7MVks2+C8zOQsTBluXroQ7FQJqX0DuKkJiw1tKJakXnJo6nd/AW7jOx//y8YfwuhNtbSPnnMxwskhGj5wPkH);strokeColor=#d6b656;strokeWidth=2;points=[[1,0.5,0],[0.5,0.5,0],[0.5,0,0],[0.03,0.04,0],[0.97,0.04,0],[0.03,0.96,0],[0.97,0.96,0]];labelBackgroundColor=none;rounded=0;html=1;whiteSpace=wrap;" parent="1" vertex="1">
          <mxGeometry x="956" y="1363" width="121" height="91" as="geometry" />
        </mxCell>
        <mxCell id="18" style="vsdxID=9;edgeStyle=none;startArrow=none;endArrow=block;startSize=5;endSize=5;strokeWidth=2;strokeColor=#ffffff;spacingTop=0;spacingBottom=0;spacingLeft=0;spacingRight=0;verticalAlign=middle;html=1;labelBackgroundColor=#ffffff;rounded=0;exitX=1.0082644628099173;exitY=0.4945054945054945;exitDx=0;exitDy=0;exitPerimeter=0;entryX=0;entryY=0.4945054945054945;entryDx=0;entryDy=0;entryPerimeter=0;" parent="1" source="9" target="7" edge="1">
          <mxGeometry relative="1" as="geometry">
            <mxPoint as="offset" />
            <Array as="points" />
          </mxGeometry>
        </mxCell>
        <mxCell id="19" style="vsdxID=10;edgeStyle=none;startArrow=none;endArrow=block;startSize=5;endSize=5;strokeWidth=2;strokeColor=#ffffff;spacingTop=0;spacingBottom=0;spacingLeft=0;spacingRight=0;verticalAlign=middle;html=1;labelBackgroundColor=#ffffff;rounded=0;exitX=1.0082644628099173;exitY=0.4945054945054945;exitDx=0;exitDy=0;exitPerimeter=0;entryX=0;entryY=0.4945054945054945;entryDx=0;entryDy=0;entryPerimeter=0;" parent="1" source="7" target="8" edge="1">
          <mxGeometry relative="1" as="geometry">
            <mxPoint as="offset" />
            <Array as="points" />
          </mxGeometry>
        </mxCell>
        <mxCell id="20" style="vsdxID=11;edgeStyle=none;startArrow=none;endArrow=block;startSize=5;endSize=5;strokeWidth=2;strokeColor=#ffffff;spacingTop=0;spacingBottom=0;spacingLeft=0;spacingRight=0;verticalAlign=middle;html=1;labelBackgroundColor=#ffffff;rounded=0;exitX=0.5041322314049587;exitY=0;exitDx=0;exitDy=0;exitPerimeter=0;entryX=0.5041322314049587;entryY=1.010989010989011;entryDx=0;entryDy=0;entryPerimeter=0;" parent="1" source="8" target="2" edge="1">
          <mxGeometry relative="1" as="geometry">
            <mxPoint x="10" as="offset" />
            <Array as="points" />
          </mxGeometry>
        </mxCell>
        <mxCell id="21" style="vsdxID=12;edgeStyle=none;startArrow=none;endArrow=block;startSize=5;endSize=5;strokeWidth=2;strokeColor=#ffffff;spacingTop=0;spacingBottom=0;spacingLeft=0;spacingRight=0;verticalAlign=middle;html=1;labelBackgroundColor=#ffffff;rounded=0;exitX=0.5041322314049587;exitY=0;exitDx=0;exitDy=0;exitPerimeter=0;entryX=0.5041322314049587;entryY=1.010989010989011;entryDx=0;entryDy=0;entryPerimeter=0;" parent="1" source="7" target="5" edge="1">
          <mxGeometry relative="1" as="geometry">
            <mxPoint x="10" as="offset" />
            <Array as="points" />
          </mxGeometry>
        </mxCell>
        <mxCell id="22" style="vsdxID=34;edgeStyle=none;startArrow=none;endArrow=block;startSize=5;endSize=5;strokeWidth=2;strokeColor=#ffffff;spacingTop=0;spacingBottom=0;spacingLeft=0;spacingRight=0;verticalAlign=middle;html=1;labelBackgroundColor=#ffffff;rounded=0;exitX=1.0082644628099173;exitY=0.5054945054945055;exitDx=0;exitDy=0;exitPerimeter=0;entryX=0;entryY=0.4945054945054945;entryDx=0;entryDy=0;entryPerimeter=0;" parent="1" source="14" target="10" edge="1">
          <mxGeometry relative="1" as="geometry">
            <mxPoint as="offset" />
            <Array as="points">
              <mxPoint x="904.58" y="874" />
              <mxPoint x="904.58" y="745.31" />
            </Array>
          </mxGeometry>
        </mxCell>
        <mxCell id="23" style="vsdxID=33;edgeStyle=none;startArrow=none;endArrow=block;startSize=5;endSize=5;strokeWidth=2;strokeColor=#ffffff;spacingTop=0;spacingBottom=0;spacingLeft=0;spacingRight=0;verticalAlign=middle;html=1;labelBackgroundColor=#ffffff;rounded=0;exitX=1.0082644628099173;exitY=0.5054945054945055;exitDx=0;exitDy=0;exitPerimeter=0;entryX=0;entryY=0.5054945054945055;entryDx=0;entryDy=0;entryPerimeter=0;" parent="1" source="14" target="12" edge="1">
          <mxGeometry relative="1" as="geometry">
            <mxPoint as="offset" />
            <Array as="points" />
          </mxGeometry>
        </mxCell>
        <mxCell id="24" style="vsdxID=32;edgeStyle=none;startArrow=none;endArrow=block;startSize=5;endSize=5;strokeWidth=2;strokeColor=#ffffff;spacingTop=0;spacingBottom=0;spacingLeft=0;spacingRight=0;verticalAlign=middle;html=1;labelBackgroundColor=#ffffff;rounded=0;exitX=1.0082644628099173;exitY=0.5054945054945055;exitDx=0;exitDy=0;exitPerimeter=0;entryX=0;entryY=0.5054945054945055;entryDx=0;entryDy=0;entryPerimeter=0;" parent="1" source="4" target="11" edge="1">
          <mxGeometry relative="1" as="geometry">
            <mxPoint y="-1" as="offset" />
            <Array as="points">
              <mxPoint x="905.63" y="1072" />
              <mxPoint x="905.63" y="1002.61" />
            </Array>
          </mxGeometry>
        </mxCell>
        <mxCell id="25" style="vsdxID=31;edgeStyle=none;startArrow=none;endArrow=block;startSize=5;endSize=5;strokeWidth=2;strokeColor=#ffffff;spacingTop=0;spacingBottom=0;spacingLeft=0;spacingRight=0;verticalAlign=middle;html=1;labelBackgroundColor=#ffffff;rounded=0;exitX=1.0082644628099173;exitY=0.5054945054945055;exitDx=0;exitDy=0;exitPerimeter=0;entryX=0;entryY=0.4945054945054945;entryDx=0;entryDy=0;entryPerimeter=0;" parent="1" source="4" target="13" edge="1">
          <mxGeometry relative="1" as="geometry">
            <mxPoint as="offset" />
            <Array as="points">
              <mxPoint x="905.63" y="1072" />
              <mxPoint x="905.63" y="1131.3" />
            </Array>
          </mxGeometry>
        </mxCell>
        <mxCell id="26" style="vsdxID=30;edgeStyle=none;startArrow=none;endArrow=block;startSize=5;endSize=5;strokeWidth=2;strokeColor=#ffffff;spacingTop=0;spacingBottom=0;spacingLeft=0;spacingRight=0;verticalAlign=middle;html=1;labelBackgroundColor=#ffffff;rounded=0;exitX=1.0082644628099173;exitY=0.5054945054945055;exitDx=0;exitDy=0;exitPerimeter=0;entryX=0;entryY=0.4945054945054945;entryDx=0;entryDy=0;entryPerimeter=0;" parent="1" source="6" target="16" edge="1">
          <mxGeometry relative="1" as="geometry">
            <mxPoint y="-1" as="offset" />
            <Array as="points">
              <mxPoint x="893" y="1270" />
              <mxPoint x="893" y="1408.5" />
            </Array>
          </mxGeometry>
        </mxCell>
        <mxCell id="27" style="vsdxID=29;edgeStyle=none;startArrow=none;endArrow=block;startSize=5;endSize=5;strokeWidth=2;strokeColor=#ffffff;spacingTop=0;spacingBottom=0;spacingLeft=0;spacingRight=0;verticalAlign=middle;html=1;labelBackgroundColor=#ffffff;rounded=0;exitX=1.0082644628099173;exitY=0.5054945054945055;exitDx=0;exitDy=0;exitPerimeter=0;entryX=0;entryY=0.5054945054945055;entryDx=0;entryDy=0;entryPerimeter=0;" parent="1" source="6" target="15" edge="1">
          <mxGeometry relative="1" as="geometry">
            <mxPoint as="offset" />
            <Array as="points" />
          </mxGeometry>
        </mxCell>
        <mxCell id="28" style="vsdxID=28;edgeStyle=none;startArrow=none;endArrow=block;startSize=5;endSize=5;strokeWidth=2;strokeColor=#ffffff;spacingTop=0;spacingBottom=0;spacingLeft=0;spacingRight=0;verticalAlign=middle;html=1;labelBackgroundColor=#ffffff;rounded=0;exitX=1.0082644628099173;exitY=0.5054945054945055;exitDx=0;exitDy=0;exitPerimeter=0;entryX=0;entryY=0.5054945054945055;entryDx=0;entryDy=0;entryPerimeter=0;" parent="1" source="2" target="6" edge="1">
          <mxGeometry relative="1" as="geometry">
            <mxPoint y="-1" as="offset" />
            <Array as="points">
              <mxPoint x="680.25" y="1072" />
              <mxPoint x="680.25" y="1269.8" />
            </Array>
          </mxGeometry>
        </mxCell>
        <mxCell id="29" style="vsdxID=27;edgeStyle=none;startArrow=none;endArrow=block;startSize=5;endSize=5;strokeWidth=2;strokeColor=#ffffff;spacingTop=0;spacingBottom=0;spacingLeft=0;spacingRight=0;verticalAlign=middle;html=1;labelBackgroundColor=#ffffff;rounded=0;exitX=1.0082644628099173;exitY=0.5054945054945055;exitDx=0;exitDy=0;exitPerimeter=0;entryX=0;entryY=0.5054945054945055;entryDx=0;entryDy=0;entryPerimeter=0;" parent="1" source="2" target="14" edge="1">
          <mxGeometry relative="1" as="geometry">
            <mxPoint as="offset" />
            <Array as="points">
              <mxPoint x="679.6" y="1072" />
              <mxPoint x="679.6" y="873.92" />
            </Array>
          </mxGeometry>
        </mxCell>
        <mxCell id="30" style="vsdxID=26;edgeStyle=none;startArrow=none;endArrow=block;startSize=5;endSize=5;strokeWidth=2;strokeColor=#ffffff;spacingTop=0;spacingBottom=0;spacingLeft=0;spacingRight=0;verticalAlign=middle;html=1;labelBackgroundColor=#ffffff;rounded=0;exitX=1.0082644628099173;exitY=0.5054945054945055;exitDx=0;exitDy=0;exitPerimeter=0;entryX=0;entryY=0.5054945054945055;entryDx=0;entryDy=0;entryPerimeter=0;" parent="1" source="2" target="4" edge="1">
          <mxGeometry relative="1" as="geometry">
            <mxPoint x="-1" as="offset" />
            <Array as="points" />
          </mxGeometry>
        </mxCell>
        <mxCell id="31" style="vsdxID=16;edgeStyle=none;startArrow=none;endArrow=block;startSize=5;endSize=5;strokeWidth=2;strokeColor=#ffffff;spacingTop=0;spacingBottom=0;spacingLeft=0;spacingRight=0;verticalAlign=middle;html=1;labelBackgroundColor=#ffffff;rounded=0;exitX=1.0082644628099173;exitY=0.5054945054945055;exitDx=0;exitDy=0;exitPerimeter=0;entryX=0;entryY=0.5054945054945055;entryDx=0;entryDy=0;entryPerimeter=0;" parent="1" source="5" target="2" edge="1">
          <mxGeometry relative="1" as="geometry">
            <mxPoint as="offset" />
            <Array as="points" />
          </mxGeometry>
        </mxCell>
        <mxCell id="aFGjaNq-tXqF2wFX-RCe-34" value="&lt;div style=&quot;font-size: 1px&quot;&gt;&lt;font style=&quot;font-size:14.11px;font-family:Calibri;color:#000000;direction:ltr;letter-spacing:0px;line-height:120%;opacity:1&quot;&gt;POE+ Output&lt;br/&gt;&lt;/font&gt;&lt;/div&gt;" style="verticalAlign=middle;align=center;vsdxID=19;fillColor=#ffffff;gradientColor=none;shape=stencil(vVTLcsMgDPwajmYIavw4p+l/MA22mVLjkUnj/n3xKG5jbHrK+KbHIrGLEIPT0KpeMykGj+5D38zFtwxemZSmazUaHywGZwan2qFu0F27C/m9mpCT9em+pgojnTuI6YgU37NL/hthrekesNXTsArfQw5/78AloXGGAz9WFBqXBeaCZc7z4o7I1GiGDJ1X3riO8ne0VdjoLLTLaquaRWq4ad2vwptk4ubhegBpPhWHIuIj+XFBJ5JH7MVks2+C8zOQsTBluXroQ7FQJqX0DuKkJiw1tKJakXnJo6nd/AW7jOx//y8YfwuhNtbSPnnMxwskhGj5wPkH);strokeColor=#000000;strokeWidth=2;points=[[1,0.5,0],[0.5,0.5,0],[0.5,0,0],[0.03,0.04,0],[0.97,0.04,0],[0.03,0.96,0],[0.97,0.96,0]];labelBackgroundColor=none;rounded=0;html=1;whiteSpace=wrap;" vertex="1" parent="1">
          <mxGeometry x="956" y="700" width="121" height="91" as="geometry" />
        </mxCell>
        <mxCell id="aFGjaNq-tXqF2wFX-RCe-35" value="&lt;div style=&quot;font-size: 1px&quot;&gt;&lt;font style=&quot;font-size:14.11px;font-family:Calibri;color:#000000;direction:ltr;letter-spacing:0px;line-height:120%;opacity:1&quot;&gt;POE+ Output&lt;br/&gt;&lt;/font&gt;&lt;/div&gt;" style="verticalAlign=middle;align=center;vsdxID=21;fillColor=#ffffff;gradientColor=none;shape=stencil(vVTLcsMgDPwajmYIavw4p+l/MA22mVLjkUnj/n3xKG5jbHrK+KbHIrGLEIPT0KpeMykGj+5D38zFtwxemZSmazUaHywGZwan2qFu0F27C/m9mpCT9em+pgojnTuI6YgU37NL/hthrekesNXTsArfQw5/78AloXGGAz9WFBqXBeaCZc7z4o7I1GiGDJ1X3riO8ne0VdjoLLTLaquaRWq4ad2vwptk4ubhegBpPhWHIuIj+XFBJ5JH7MVks2+C8zOQsTBluXroQ7FQJqX0DuKkJiw1tKJakXnJo6nd/AW7jOx//y8YfwuhNtbSPnnMxwskhGj5wPkH);strokeColor=#000000;strokeWidth=2;points=[[1,0.5,0],[0.5,0.5,0],[0.5,0,0],[0.03,0.04,0],[0.97,0.04,0],[0.03,0.96,0],[0.97,0.96,0]];labelBackgroundColor=none;rounded=0;html=1;whiteSpace=wrap;" vertex="1" parent="1">
          <mxGeometry x="956" y="828" width="121" height="91" as="geometry" />
        </mxCell>
        <mxCell id="aFGjaNq-tXqF2wFX-RCe-37" value="&lt;div style=&quot;font-size: 1px&quot;&gt;&lt;font style=&quot;font-size:14.11px;font-family:Calibri;color:#000000;direction:ltr;letter-spacing:0px;line-height:120%;opacity:1&quot;&gt;POE+ Output&lt;br/&gt;&lt;/font&gt;&lt;/div&gt;" style="verticalAlign=middle;align=center;vsdxID=19;fillColor=#fff2cc;gradientColor=#ffd966;shape=stencil(vVTLcsMgDPwajmYIavw4p+l/MA22mVLjkUnj/n3xKG5jbHrK+KbHIrGLEIPT0KpeMykGj+5D38zFtwxemZSmazUaHywGZwan2qFu0F27C/m9mpCT9em+pgojnTuI6YgU37NL/hthrekesNXTsArfQw5/78AloXGGAz9WFBqXBeaCZc7z4o7I1GiGDJ1X3riO8ne0VdjoLLTLaquaRWq4ad2vwptk4ubhegBpPhWHIuIj+XFBJ5JH7MVks2+C8zOQsTBluXroQ7FQJqX0DuKkJiw1tKJakXnJo6nd/AW7jOx//y8YfwuhNtbSPnnMxwskhGj5wPkH);strokeColor=#d6b656;strokeWidth=2;points=[[1,0.5,0],[0.5,0.5,0],[0.5,0,0],[0.03,0.04,0],[0.97,0.04,0],[0.03,0.96,0],[0.97,0.96,0]];labelBackgroundColor=none;rounded=0;html=1;whiteSpace=wrap;" vertex="1" parent="1">
          <mxGeometry x="956" y="700" width="121" height="91" as="geometry" />
        </mxCell>
        <mxCell id="aFGjaNq-tXqF2wFX-RCe-38" value="&lt;div style=&quot;font-size: 1px&quot;&gt;&lt;font style=&quot;font-size:14.11px;font-family:Calibri;color:#000000;direction:ltr;letter-spacing:0px;line-height:120%;opacity:1&quot;&gt;POE+ Output&lt;br/&gt;&lt;/font&gt;&lt;/div&gt;" style="verticalAlign=middle;align=center;vsdxID=21;fillColor=#fff2cc;gradientColor=#ffd966;shape=stencil(vVTLcsMgDPwajmYIavw4p+l/MA22mVLjkUnj/n3xKG5jbHrK+KbHIrGLEIPT0KpeMykGj+5D38zFtwxemZSmazUaHywGZwan2qFu0F27C/m9mpCT9em+pgojnTuI6YgU37NL/hthrekesNXTsArfQw5/78AloXGGAz9WFBqXBeaCZc7z4o7I1GiGDJ1X3riO8ne0VdjoLLTLaquaRWq4ad2vwptk4ubhegBpPhWHIuIj+XFBJ5JH7MVks2+C8zOQsTBluXroQ7FQJqX0DuKkJiw1tKJakXnJo6nd/AW7jOx//y8YfwuhNtbSPnnMxwskhGj5wPkH);strokeColor=#d6b656;strokeWidth=2;points=[[1,0.5,0],[0.5,0.5,0],[0.5,0,0],[0.03,0.04,0],[0.97,0.04,0],[0.03,0.96,0],[0.97,0.96,0]];labelBackgroundColor=none;rounded=0;html=1;whiteSpace=wrap;" vertex="1" parent="1">
          <mxGeometry x="956" y="828" width="121" height="91" as="geometry" />
        </mxCell>
        <mxCell id="aFGjaNq-tXqF2wFX-RCe-39" value="&lt;div style=&quot;font-size: 1px&quot;&gt;&lt;font style=&quot;font-size:14.11px;font-family:Calibri;color:#000000;direction:ltr;letter-spacing:0px;line-height:120%;opacity:1&quot;&gt;POE+ Output&lt;br/&gt;&lt;/font&gt;&lt;/div&gt;" style="verticalAlign=middle;align=center;vsdxID=20;fillColor=#fff2cc;gradientColor=#ffd966;shape=stencil(vVTLcsMgDPwajmYIavw4p+l/MA22mVLjkUnj/n3xKG5jbHrK+KbHIrGLEIPT0KpeMykGj+5D38zFtwxemZSmazUaHywGZwan2qFu0F27C/m9mpCT9em+pgojnTuI6YgU37NL/hthrekesNXTsArfQw5/78AloXGGAz9WFBqXBeaCZc7z4o7I1GiGDJ1X3riO8ne0VdjoLLTLaquaRWq4ad2vwptk4ubhegBpPhWHIuIj+XFBJ5JH7MVks2+C8zOQsTBluXroQ7FQJqX0DuKkJiw1tKJakXnJo6nd/AW7jOx//y8YfwuhNtbSPnnMxwskhGj5wPkH);strokeColor=#d6b656;strokeWidth=2;points=[[1,0.5,0],[0.5,0.5,0],[0.5,0,0],[0.03,0.04,0],[0.97,0.04,0],[0.03,0.96,0],[0.97,0.96,0]];labelBackgroundColor=none;rounded=0;html=1;whiteSpace=wrap;" vertex="1" parent="1">
          <mxGeometry x="956" y="957" width="121" height="91" as="geometry" />
        </mxCell>
        <mxCell id="aFGjaNq-tXqF2wFX-RCe-40" value="&lt;div style=&quot;font-size: 1px&quot;&gt;&lt;font style=&quot;font-size:14.11px;font-family:Calibri;color:#000000;direction:ltr;letter-spacing:0px;line-height:120%;opacity:1&quot;&gt;POE+ Output&lt;br/&gt;&lt;/font&gt;&lt;/div&gt;" style="verticalAlign=middle;align=center;vsdxID=22;fillColor=#fff2cc;gradientColor=#ffd966;shape=stencil(vVTLcsMgDPwajmYIavw4p+l/MA22mVLjkUnj/n3xKG5jbHrK+KbHIrGLEIPT0KpeMykGj+5D38zFtwxemZSmazUaHywGZwan2qFu0F27C/m9mpCT9em+pgojnTuI6YgU37NL/hthrekesNXTsArfQw5/78AloXGGAz9WFBqXBeaCZc7z4o7I1GiGDJ1X3riO8ne0VdjoLLTLaquaRWq4ad2vwptk4ubhegBpPhWHIuIj+XFBJ5JH7MVks2+C8zOQsTBluXroQ7FQJqX0DuKkJiw1tKJakXnJo6nd/AW7jOx//y8YfwuhNtbSPnnMxwskhGj5wPkH);strokeColor=#d6b656;strokeWidth=2;points=[[1,0.5,0],[0.5,0.5,0],[0.5,0,0],[0.03,0.04,0],[0.97,0.04,0],[0.03,0.96,0],[0.97,0.96,0]];labelBackgroundColor=none;rounded=0;html=1;whiteSpace=wrap;" vertex="1" parent="1">
          <mxGeometry x="956" y="1086" width="121" height="91" as="geometry" />
        </mxCell>
      </root>
    </mxGraphModel>
  </diagram>
  <diagram name="Software - Overview" id="Software_-_Overview">
    <mxGraphModel style="default-style2">
      <root>
        <mxCell id="0" />
        <mxCell id="1" value="Container" parent="0" />
        <mxCell id="3" style="vsdxID=64;fillColor=none;gradientColor=none;strokeColor=none;strokeWidth=2;spacingLeft=1;spacingRight=1;points=[[0.25,0,0],[0.5,0,0],[0.75,0,0],[1,0.25,0],[1,0.5,0],[1,0.75,0],[0.75,0.75,0],[0.5,0.75,0],[0.25,0.75,0],[0.25,0.75,0],[0.25,0.5,0],[0.25,0.25,0]];labelBackgroundColor=none;rounded=0;html=1;whiteSpace=wrap;" vertex="1" parent="1">
          <mxGeometry x="2193" y="974" width="224" height="534" as="geometry" />
        </mxCell>
        <mxCell id="4" style="vsdxID=65;fillColor=#ffffff;gradientColor=#ffffff;strokeOpacity=60;shape=stencil(UzV2Ls5ILEhVNTIoLinKz04tz0wpyVA1dlE1MsrMy0gtyiwBslSNXVWNndPyi1LTi/JL81Ig/IJEkEoQKze/DGRCBUSfAUiHkUElhGdoAOG7QZTmZOYhKTWlkVqYJFmKiXcDVVSSqRDNS0AGIj7SMnNyINGJLI8ef0AhSNwbuwIA);strokeColor=#ffffff;points=[[0.25,0,0],[0.5,0,0],[0.75,0,0],[1,0.25,0],[1,0.5,0],[1,0.75,0],[0.75,1,0],[0.5,1,0],[0.25,1,0],[0,0.75,0],[0,0.5,0],[0,0.25,0]];labelBackgroundColor=none;rounded=0;html=1;whiteSpace=wrap;" vertex="1" parent="3">
          <mxGeometry width="224" height="534" as="geometry" />
        </mxCell>
        <mxCell id="5" value="&lt;div style=&quot;font-size: 1px&quot;&gt;&lt;p style=&quot;align:center;margin-left:0;margin-right:0;margin-top:0px;margin-bottom:0px;text-indent:0;valign:middle;direction:ltr;&quot;&gt;&lt;/p&gt;&lt;/div&gt;" style="text;vsdxID=65;fillColor=none;gradientColor=none;strokeOpacity=60;strokeColor=none;points=[[0.25,0,0],[0.5,0,0],[0.75,0,0],[1,0.25,0],[1,0.5,0],[1,0.75,0],[0.75,1,0],[0.5,1,0],[0.25,1,0],[0,0.75,0],[0,0.5,0],[0,0.25,0]];labelBackgroundColor=none;rounded=0;html=1;whiteSpace=wrap;verticalAlign=middle;align=center;;html=1;" vertex="1" parent="4">
          <mxGeometry y="-0.75" width="224" height="534.75" as="geometry" />
        </mxCell>
        <mxCell id="6" style="vsdxID=67;fillColor=none;gradientColor=none;gradientDirection=north;strokeOpacity=60;strokeColor=none;strokeWidth=2;spacingLeft=1;spacingRight=1;points=[[0.25,0,0],[0.5,0,0],[0.75,0,0],[1,0.25,0],[1,0.5,0],[1,0.75,0],[0.75,1,0],[0.5,1,0],[0.25,1,0],[0,0.75,0],[0,0.5,0],[0,0.25,0]];labelBackgroundColor=none;rounded=0;html=1;whiteSpace=wrap;" vertex="1" parent="3">
          <mxGeometry width="224" height="36" as="geometry" />
        </mxCell>
        <mxCell id="7" value="&lt;div style=&quot;font-size: 1px&quot;&gt;&lt;/div&gt;" style="verticalAlign=middle;align=center;vsdxID=68;fillColor=none;gradientColor=none;strokeColor=none;strokeWidth=2;points=[[0.25,0,0],[0.5,0,0],[0.75,0,0],[1,0.25,0],[1,0.5,0],[1,0.75,0],[0.75,1,0],[0.5,1,0],[0.25,1,0],[0,0.75,0],[0,0.5,0],[0,0.25,0]];labelBackgroundColor=none;rounded=0;html=1;whiteSpace=wrap;" vertex="1" parent="6">
          <mxGeometry width="224" height="36" as="geometry" />
        </mxCell>
        <mxCell id="8" value="&lt;div style=&quot;font-size: 1px&quot;&gt;&lt;font style=&quot;font-size:16.93px;font-family:Calibri;color:#000000;direction:ltr;letter-spacing:0px;line-height:120%;opacity:1&quot;&gt;ESP32 / Microcontroller&lt;br/&gt;&lt;/font&gt;&lt;/div&gt;" style="text;vsdxID=67;fillColor=none;gradientColor=none;gradientDirection=north;strokeOpacity=60;strokeColor=none;strokeWidth=2;spacingLeft=1;spacingRight=1;points=[[0.25,0,0],[0.5,0,0],[0.75,0,0],[1,0.25,0],[1,0.5,0],[1,0.75,0],[0.75,1,0],[0.5,1,0],[0.25,1,0],[0,0.75,0],[0,0.5,0],[0,0.25,0]];labelBackgroundColor=none;rounded=0;html=1;whiteSpace=wrap;verticalAlign=middle;align=left;;html=1;" vertex="1" parent="6">
          <mxGeometry width="224" height="36" as="geometry" />
        </mxCell>
        <mxCell id="9" style="vsdxID=70;fillColor=none;gradientColor=none;strokeColor=none;strokeWidth=2;spacingLeft=1;spacingRight=1;points=[[0.25,0,0],[0.5,0,0],[0.75,0,0],[1,0.25,0],[1,0.5,0],[1,0.75,0],[0.75,0.75,0],[0.5,0.75,0],[0.25,0.75,0],[0.25,0.75,0],[0.25,0.5,0],[0.25,0.25,0]];labelBackgroundColor=none;rounded=0;html=1;whiteSpace=wrap;" vertex="1" parent="1">
          <mxGeometry x="1125" y="1529" width="498" height="260" as="geometry" />
        </mxCell>
        <mxCell id="10" style="vsdxID=71;fillColor=#ffffff;gradientColor=#ffffff;strokeOpacity=60;shape=stencil(UzV2Ls5ILEhVNTIoLinKz04tz0wpyVA1dlE1MsrMy0gtyiwBslSNXVWNndPyi1LTi/JL81Ig/IJEkEoQKze/DGRCBUSfAUiHkUElhGdoAOG7QZTmZOYhKTWlkVqYJFmKiXcDVVSSqRDNS0AGIj7SMnNyINGJLI8ef0AhSNwbuwIA);strokeColor=#ffffff;points=[[0.25,0,0],[0.5,0,0],[0.75,0,0],[1,0.25,0],[1,0.5,0],[1,0.75,0],[0.75,1,0],[0.5,1,0],[0.25,1,0],[0,0.75,0],[0,0.5,0],[0,0.25,0]];labelBackgroundColor=none;rounded=0;html=1;whiteSpace=wrap;" vertex="1" parent="9">
          <mxGeometry width="498" height="260" as="geometry" />
        </mxCell>
        <mxCell id="11" value="&lt;div style=&quot;font-size: 1px&quot;&gt;&lt;p style=&quot;align:center;margin-left:0;margin-right:0;margin-top:0px;margin-bottom:0px;text-indent:0;valign:middle;direction:ltr;&quot;&gt;&lt;/p&gt;&lt;/div&gt;" style="text;vsdxID=71;fillColor=none;gradientColor=none;strokeOpacity=60;strokeColor=none;points=[[0.25,0,0],[0.5,0,0],[0.75,0,0],[1,0.25,0],[1,0.5,0],[1,0.75,0],[0.75,1,0],[0.5,1,0],[0.25,1,0],[0,0.75,0],[0,0.5,0],[0,0.25,0]];labelBackgroundColor=none;rounded=0;html=1;whiteSpace=wrap;verticalAlign=middle;align=center;;html=1;" vertex="1" parent="10">
          <mxGeometry width="498.75" height="260" as="geometry" />
        </mxCell>
        <mxCell id="12" style="vsdxID=73;fillColor=none;gradientColor=none;gradientDirection=north;strokeOpacity=60;strokeColor=none;strokeWidth=2;spacingLeft=1;spacingRight=1;points=[[0.25,0,0],[0.5,0,0],[0.75,0,0],[1,0.25,0],[1,0.5,0],[1,0.75,0],[0.75,1,0],[0.5,1,0],[0.25,1,0],[0,0.75,0],[0,0.5,0],[0,0.25,0]];labelBackgroundColor=none;rounded=0;html=1;whiteSpace=wrap;" vertex="1" parent="9">
          <mxGeometry width="498" height="36" as="geometry" />
        </mxCell>
        <mxCell id="13" value="&lt;div style=&quot;font-size: 1px&quot;&gt;&lt;/div&gt;" style="verticalAlign=middle;align=center;vsdxID=74;fillColor=none;gradientColor=none;strokeColor=none;strokeWidth=2;points=[[0.25,0,0],[0.5,0,0],[0.75,0,0],[1,0.25,0],[1,0.5,0],[1,0.75,0],[0.75,1,0],[0.5,1,0],[0.25,1,0],[0,0.75,0],[0,0.5,0],[0,0.25,0]];labelBackgroundColor=none;rounded=0;html=1;whiteSpace=wrap;" vertex="1" parent="12">
          <mxGeometry width="498" height="36" as="geometry" />
        </mxCell>
        <mxCell id="14" value="&lt;div style=&quot;font-size: 1px&quot;&gt;&lt;font style=&quot;font-size:16.93px;font-family:Calibri;color:#000000;direction:ltr;letter-spacing:0px;line-height:120%;opacity:1&quot;&gt;Sensor End Effector&lt;br/&gt;&lt;/font&gt;&lt;/div&gt;" style="text;vsdxID=73;fillColor=none;gradientColor=none;gradientDirection=north;strokeOpacity=60;strokeColor=none;strokeWidth=2;spacingLeft=1;spacingRight=1;points=[[0.25,0,0],[0.5,0,0],[0.75,0,0],[1,0.25,0],[1,0.5,0],[1,0.75,0],[0.75,1,0],[0.5,1,0],[0.25,1,0],[0,0.75,0],[0,0.5,0],[0,0.25,0]];labelBackgroundColor=none;rounded=0;html=1;whiteSpace=wrap;verticalAlign=middle;align=left;;html=1;" vertex="1" parent="12">
          <mxGeometry width="498.75" height="36" as="geometry" />
        </mxCell>
        <mxCell id="15" style="vsdxID=69;rotation=270;fillColor=#fec375;gradientColor=none;fillOpacity=50;shape=stencil(vZTNDoIwDMefZkeWuYHK2Y/3WHTA4mSkTMW3d6QsygRPhtva/trm33QlYtdWslGEs9aBvaiHPruKiD3hXNeVAu38i4gDEbvCgirB3uoz2o3syf51tfe+Qod5K9ancPYMJtpHZI2uP9j8b6yEk49BYOk6RxoGPKVsi55unB/q5RndDDldIjvdJmCddNrWGB9oI6FUie+WFEaWo1D7UKr5ck9qiZunlK9+qcm2X2rSkZpoOGwpIZN9ZyT/gxwPJpAQjzGUmpnyAoOZW64ZHVTwWIrIon2dXP9FlvXXx/OP9yUotDF4SD7j8eXwLrw64vAC);strokeColor=#ffe8c8;points=[[1,0.5,0],[0.5,0.5,0],[0.5,0,0],[0.03,0.01,0],[0.97,0.01,0],[0.03,0.99,0],[0.97,0.99,0]];labelBackgroundColor=none;rounded=0;html=1;whiteSpace=wrap;" vertex="1" parent="1">
          <mxGeometry x="1274" y="1439" width="200" height="474" as="geometry" />
        </mxCell>
        <mxCell id="16" style="vsdxID=58;fillColor=#fec375;gradientColor=none;fillOpacity=50;shape=stencil(vZTNDoIwDMefZkeWuYHK2Y/3WHTA4mSkTMW3d6QsygRPhtva/trm33QlYtdWslGEs9aBvaiHPruKiD3hXNeVAu38i4gDEbvCgirB3uoz2o3syf51tfe+Qod5K9ancPYMJtpHZI2uP9j8b6yEk49BYOk6RxoGPKVsi55unB/q5RndDDldIjvdJmCddNrWGB9oI6FUie+WFEaWo1D7UKr5ck9qiZunlK9+qcm2X2rSkZpoOGwpIZN9ZyT/gxwPJpAQjzGUmpnyAoOZW64ZHVTwWIrIon2dXP9FlvXXx/OP9yUotDF4SD7j8eXwLrw64vAC);strokeColor=#ffe8c8;points=[[1,0.5,0],[0.5,0.5,0],[0.5,0,0],[0.03,0.01,0],[0.97,0.01,0],[0.03,0.99,0],[0.97,0.99,0]];labelBackgroundColor=none;rounded=0;html=1;whiteSpace=wrap;" vertex="1" parent="1">
          <mxGeometry x="2205" y="1022" width="200" height="474" as="geometry" />
        </mxCell>
        <mxCell id="17" value="&lt;div style=&quot;font-size: 1px&quot;&gt;&lt;font style=&quot;font-size:14.11px;font-family:Calibri;color:#000000;direction:ltr;letter-spacing:0px;line-height:120%;opacity:1&quot;&gt;&amp;lt;HTML&amp;gt; &lt;br/&gt;Login Page&lt;br/&gt;&lt;/font&gt;&lt;/div&gt;" style="verticalAlign=middle;align=center;vsdxID=57;fillColor=#ffffff;gradientColor=none;shape=stencil(vVTbboMwDP2aPBKFeMD63Hb/EZUA0VKCTLbSv1+Qi1YC9KnizZdjO+fIMYNj36hOMyl6j+5b30zpGwYnJqVpG43GB4vBmcGxcqhrdD9tSX6nRuRoXd3v2GGgulSMJVLcJ5f8L8Ja0z5hD2/DKryEHE5YnhWExgkueZFTaJg3mBp+5jx/FA2JGkyfoPPKG9dS/oG2CmudhHFJZVU9S/U3rbtFeJVMPDwFDvCKj8gXfEQx4xPpI/aisjp3g/Q7kLEysBDmY6bLltA7SLO1YKtMUsFFFnEJjz1ES7v6CXbZ2FffLxj/96Ay1tI5ec7H9yOE6PbA+Q8=);strokeColor=#000000;strokeWidth=2;points=[[1,0.5,0],[0.5,0.5,0],[0.5,0,0],[0.03,0.04,0],[0.97,0.04,0],[0.03,0.96,0],[0.97,0.96,0]];labelBackgroundColor=none;rounded=0;html=1;whiteSpace=wrap;" vertex="1" parent="1">
          <mxGeometry x="1485" y="941" width="109" height="81" as="geometry" />
        </mxCell>
        <mxCell id="18" value="&lt;div style=&quot;font-size: 1px&quot;&gt;&lt;font style=&quot;font-size:14.11px;font-family:Calibri;color:#000000;direction:ltr;letter-spacing:0px;line-height:120%;opacity:1&quot;&gt;&amp;lt;HTML&amp;gt; &lt;br/&gt;User Interface&lt;br/&gt;&lt;/font&gt;&lt;/div&gt;" style="verticalAlign=middle;align=center;vsdxID=55;fillColor=#ffffff;gradientColor=none;shape=stencil(vVTbboMwDP2aPBKFeMD63Hb/EZUA0VKCTLbSv1+Qi1YC9KnizZdjO+fIMYNj36hOMyl6j+5b30zpGwYnJqVpG43GB4vBmcGxcqhrdD9tSX6nRuRoXd3v2GGgulSMJVLcJ5f8L8Ja0z5hD2/DKryEHE5YnhWExgkueZFTaJg3mBp+5jx/FA2JGkyfoPPKG9dS/oG2CmudhHFJZVU9S/U3rbtFeJVMPDwFDvCKj8gXfEQx4xPpI/aisjp3g/Q7kLEysBDmY6bLltA7SLO1YKtMUsFFFnEJjz1ES7v6CXbZ2FffLxj/96Ay1tI5ec7H9yOE6PbA+Q8=);strokeColor=#000000;strokeWidth=2;points=[[1,0.5,0],[0.5,0.5,0],[0.5,0,0],[0.03,0.04,0],[0.97,0.04,0],[0.03,0.96,0],[0.97,0.96,0]];labelBackgroundColor=none;rounded=0;html=1;whiteSpace=wrap;" vertex="1" parent="1">
          <mxGeometry x="1485" y="1133" width="109" height="81" as="geometry" />
        </mxCell>
        <mxCell id="19" value="&lt;div style=&quot;font-size: 1px&quot;&gt;&lt;font style=&quot;font-size:14.11px;font-family:Calibri;color:#000000;direction:ltr;letter-spacing:0px;line-height:120%;opacity:1&quot;&gt;&amp;lt;ROS&amp;gt; &lt;br/&gt;Motion Quality Control&lt;br/&gt;&lt;/font&gt;&lt;/div&gt;" style="verticalAlign=middle;align=center;vsdxID=52;fillColor=#ffffff;gradientColor=none;shape=stencil(vVTbboMwDP2aPBKFeMD63Hb/EZUA0VKCTLbSv1+Qi1YC9KnizZdjO+fIMYNj36hOMyl6j+5b30zpGwYnJqVpG43GB4vBmcGxcqhrdD9tSX6nRuRoXd3v2GGgulSMJVLcJ5f8L8Ja0z5hD2/DKryEHE5YnhWExgkueZFTaJg3mBp+5jx/FA2JGkyfoPPKG9dS/oG2CmudhHFJZVU9S/U3rbtFeJVMPDwFDvCKj8gXfEQx4xPpI/aisjp3g/Q7kLEysBDmY6bLltA7SLO1YKtMUsFFFnEJjz1ES7v6CXbZ2FffLxj/96Ay1tI5ec7H9yOE6PbA+Q8=);strokeColor=#000000;strokeWidth=2;points=[[1,0.5,0],[0.5,0.5,0],[0.5,0,0],[0.03,0.04,0],[0.97,0.04,0],[0.03,0.96,0],[0.97,0.96,0]];labelBackgroundColor=none;rounded=0;html=1;whiteSpace=wrap;" vertex="1" parent="1">
          <mxGeometry x="1762" y="1133" width="109" height="81" as="geometry" />
        </mxCell>
        <mxCell id="20" value="&lt;div style=&quot;font-size: 1px&quot;&gt;&lt;font style=&quot;font-size:14.11px;font-family:Calibri;color:#000000;direction:ltr;letter-spacing:0px;line-height:120%;opacity:1&quot;&gt;&amp;lt;ROS&amp;gt; &lt;br/&gt;USB In/Out&lt;br/&gt;&lt;/font&gt;&lt;/div&gt;" style="verticalAlign=middle;align=center;vsdxID=53;fillColor=#ffffff;gradientColor=none;shape=stencil(vVTbboMwDP2aPBKFeMD63Hb/EZUA0VKCTLbSv1+Qi1YC9KnizZdjO+fIMYNj36hOMyl6j+5b30zpGwYnJqVpG43GB4vBmcGxcqhrdD9tSX6nRuRoXd3v2GGgulSMJVLcJ5f8L8Ja0z5hD2/DKryEHE5YnhWExgkueZFTaJg3mBp+5jx/FA2JGkyfoPPKG9dS/oG2CmudhHFJZVU9S/U3rbtFeJVMPDwFDvCKj8gXfEQx4xPpI/aisjp3g/Q7kLEysBDmY6bLltA7SLO1YKtMUsFFFnEJjz1ES7v6CXbZ2FffLxj/96Ay1tI5ec7H9yOE6PbA+Q8=);strokeColor=#000000;strokeWidth=2;points=[[1,0.5,0],[0.5,0.5,0],[0.5,0,0],[0.03,0.04,0],[0.97,0.04,0],[0.03,0.96,0],[0.97,0.96,0]];labelBackgroundColor=none;rounded=0;html=1;whiteSpace=wrap;" vertex="1" parent="1">
          <mxGeometry x="1938" y="1219" width="109" height="81" as="geometry" />
        </mxCell>
        <mxCell id="21" value="&lt;div style=&quot;font-size: 1px&quot;&gt;&lt;font style=&quot;font-size:14.11px;font-family:Calibri;color:#000000;direction:ltr;letter-spacing:0px;line-height:120%;opacity:1&quot;&gt;&amp;lt;ROS&amp;gt; &lt;br/&gt;Motion Tracking&lt;br/&gt;&lt;/font&gt;&lt;/div&gt;" style="verticalAlign=middle;align=center;vsdxID=51;fillColor=#ffffff;gradientColor=none;shape=stencil(vVTbboMwDP2aPBKFeMD63Hb/EZUA0VKCTLbSv1+Qi1YC9KnizZdjO+fIMYNj36hOMyl6j+5b30zpGwYnJqVpG43GB4vBmcGxcqhrdD9tSX6nRuRoXd3v2GGgulSMJVLcJ5f8L8Ja0z5hD2/DKryEHE5YnhWExgkueZFTaJg3mBp+5jx/FA2JGkyfoPPKG9dS/oG2CmudhHFJZVU9S/U3rbtFeJVMPDwFDvCKj8gXfEQx4xPpI/aisjp3g/Q7kLEysBDmY6bLltA7SLO1YKtMUsFFFnEJjz1ES7v6CXbZ2FffLxj/96Ay1tI5ec7H9yOE6PbA+Q8=);strokeColor=#000000;strokeWidth=2;points=[[1,0.5,0],[0.5,0.5,0],[0.5,0,0],[0.03,0.04,0],[0.97,0.04,0],[0.03,0.96,0],[0.97,0.96,0]];labelBackgroundColor=none;rounded=0;html=1;whiteSpace=wrap;" vertex="1" parent="1">
          <mxGeometry x="1762" y="1293" width="109" height="81" as="geometry" />
        </mxCell>
        <mxCell id="22" value="&lt;div style=&quot;font-size: 1px&quot;&gt;&lt;font style=&quot;font-size:14.11px;font-family:Calibri;color:#000000;direction:ltr;letter-spacing:0px;line-height:120%;opacity:1&quot;&gt;&amp;lt;ROS&amp;gt; &lt;br/&gt;Robot Visualization&lt;br/&gt;&lt;/font&gt;&lt;/div&gt;" style="verticalAlign=middle;align=center;vsdxID=50;fillColor=#ffffff;gradientColor=none;shape=stencil(vVTbboMwDP2aPBKFeMD63Hb/EZUA0VKCTLbSv1+Qi1YC9KnizZdjO+fIMYNj36hOMyl6j+5b30zpGwYnJqVpG43GB4vBmcGxcqhrdD9tSX6nRuRoXd3v2GGgulSMJVLcJ5f8L8Ja0z5hD2/DKryEHE5YnhWExgkueZFTaJg3mBp+5jx/FA2JGkyfoPPKG9dS/oG2CmudhHFJZVU9S/U3rbtFeJVMPDwFDvCKj8gXfEQx4xPpI/aisjp3g/Q7kLEysBDmY6bLltA7SLO1YKtMUsFFFnEJjz1ES7v6CXbZ2FffLxj/96Ay1tI5ec7H9yOE6PbA+Q8=);strokeColor=#000000;strokeWidth=2;points=[[1,0.5,0],[0.5,0.5,0],[0.5,0,0],[0.03,0.04,0],[0.97,0.04,0],[0.03,0.96,0],[0.97,0.96,0]];labelBackgroundColor=none;rounded=0;html=1;whiteSpace=wrap;" vertex="1" parent="1">
          <mxGeometry x="1525" y="1293" width="109" height="81" as="geometry" />
        </mxCell>
        <mxCell id="23" value="&lt;div style=&quot;font-size: 1px&quot;&gt;&lt;font style=&quot;font-size:14.11px;font-family:Calibri;color:#000000;direction:ltr;letter-spacing:0px;line-height:120%;opacity:1&quot;&gt;&amp;lt;ROS&amp;gt; &lt;br/&gt;Sensor Interpretation&lt;br/&gt;&lt;/font&gt;&lt;/div&gt;" style="verticalAlign=middle;align=center;vsdxID=49;fillColor=#ffffff;gradientColor=none;shape=stencil(vVTbboMwDP2aPBKFeMD63Hb/EZUA0VKCTLbSv1+Qi1YC9KnizZdjO+fIMYNj36hOMyl6j+5b30zpGwYnJqVpG43GB4vBmcGxcqhrdD9tSX6nRuRoXd3v2GGgulSMJVLcJ5f8L8Ja0z5hD2/DKryEHE5YnhWExgkueZFTaJg3mBp+5jx/FA2JGkyfoPPKG9dS/oG2CmudhHFJZVU9S/U3rbtFeJVMPDwFDvCKj8gXfEQx4xPpI/aisjp3g/Q7kLEysBDmY6bLltA7SLO1YKtMUsFFFnEJjz1ES7v6CXbZ2FffLxj/96Ay1tI5ec7H9yOE6PbA+Q8=);strokeColor=#000000;strokeWidth=2;points=[[1,0.5,0],[0.5,0.5,0],[0.5,0,0],[0.03,0.04,0],[0.97,0.04,0],[0.03,0.96,0],[0.97,0.96,0]];labelBackgroundColor=none;rounded=0;html=1;whiteSpace=wrap;" vertex="1" parent="1">
          <mxGeometry x="1311" y="1236" width="109" height="81" as="geometry" />
        </mxCell>
        <mxCell id="24" value="&lt;div style=&quot;font-size: 1px&quot;&gt;&lt;font style=&quot;font-size:14.11px;font-family:Calibri;color:#000000;direction:ltr;letter-spacing:0px;line-height:120%;opacity:1&quot;&gt;&amp;lt;ROS&amp;gt;  &lt;br/&gt;USB In/Out&lt;br/&gt;&lt;/font&gt;&lt;/div&gt;" style="verticalAlign=middle;align=center;vsdxID=48;fillColor=#ffffff;gradientColor=none;shape=stencil(vVTbboMwDP2aPBKFeMD63Hb/EZUA0VKCTLbSv1+Qi1YC9KnizZdjO+fIMYNj36hOMyl6j+5b30zpGwYnJqVpG43GB4vBmcGxcqhrdD9tSX6nRuRoXd3v2GGgulSMJVLcJ5f8L8Ja0z5hD2/DKryEHE5YnhWExgkueZFTaJg3mBp+5jx/FA2JGkyfoPPKG9dS/oG2CmudhHFJZVU9S/U3rbtFeJVMPDwFDvCKj8gXfEQx4xPpI/aisjp3g/Q7kLEysBDmY6bLltA7SLO1YKtMUsFFFnEJjz1ES7v6CXbZ2FffLxj/96Ay1tI5ec7H9yOE6PbA+Q8=);strokeColor=#000000;strokeWidth=2;points=[[1,0.5,0],[0.5,0.5,0],[0.5,0,0],[0.03,0.04,0],[0.97,0.04,0],[0.03,0.96,0],[0.97,0.96,0]];labelBackgroundColor=none;rounded=0;html=1;whiteSpace=wrap;" vertex="1" parent="1">
          <mxGeometry x="1311" y="1368" width="109" height="81" as="geometry" />
        </mxCell>
        <mxCell id="25" value="&lt;div style=&quot;font-size: 1px&quot;&gt;&lt;font style=&quot;font-size:14.11px;font-family:Calibri;color:#000000;direction:ltr;letter-spacing:0px;line-height:120%;opacity:1&quot;&gt;&amp;lt;C++&amp;gt;&lt;br/&gt;Sensor Output&lt;br/&gt;&lt;/font&gt;&lt;/div&gt;" style="verticalAlign=middle;align=center;vsdxID=47;fillColor=#ffffff;gradientColor=none;shape=stencil(vVTbboMwDP2aPBKFeMD63Hb/EZUA0VKCTLbSv1+Qi1YC9KnizZdjO+fIMYNj36hOMyl6j+5b30zpGwYnJqVpG43GB4vBmcGxcqhrdD9tSX6nRuRoXd3v2GGgulSMJVLcJ5f8L8Ja0z5hD2/DKryEHE5YnhWExgkueZFTaJg3mBp+5jx/FA2JGkyfoPPKG9dS/oG2CmudhHFJZVU9S/U3rbtFeJVMPDwFDvCKj8gXfEQx4xPpI/aisjp3g/Q7kLEysBDmY6bLltA7SLO1YKtMUsFFFnEJjz1ES7v6CXbZ2FffLxj/96Ay1tI5ec7H9yOE6PbA+Q8=);strokeColor=#000000;strokeWidth=2;points=[[1,0.5,0],[0.5,0.5,0],[0.5,0,0],[0.03,0.04,0],[0.97,0.04,0],[0.03,0.96,0],[0.97,0.96,0]];labelBackgroundColor=none;rounded=0;html=1;whiteSpace=wrap;" vertex="1" parent="1">
          <mxGeometry x="1313" y="1627" width="109" height="81" as="geometry" />
        </mxCell>
        <mxCell id="26" value="&lt;div style=&quot;font-size: 1px&quot;&gt;&lt;font style=&quot;font-size:14.11px;font-family:Calibri;color:#000000;direction:ltr;letter-spacing:0px;line-height:120%;opacity:1&quot;&gt;&amp;lt;C++&amp;gt;&lt;br/&gt;ESP32 GRBL Interpreter&lt;br/&gt;&lt;/font&gt;&lt;/div&gt;" style="verticalAlign=middle;align=center;vsdxID=54;fillColor=#ffffff;gradientColor=none;shape=stencil(vVTbboMwDP2aPBKFeMD63Hb/EZUA0VKCTLbSv1+Qi1YC9KnizZdjO+fIMYNj36hOMyl6j+5b30zpGwYnJqVpG43GB4vBmcGxcqhrdD9tSX6nRuRoXd3v2GGgulSMJVLcJ5f8L8Ja0z5hD2/DKryEHE5YnhWExgkueZFTaJg3mBp+5jx/FA2JGkyfoPPKG9dS/oG2CmudhHFJZVU9S/U3rbtFeJVMPDwFDvCKj8gXfEQx4xPpI/aisjp3g/Q7kLEysBDmY6bLltA7SLO1YKtMUsFFFnEJjz1ES7v6CXbZ2FffLxj/96Ay1tI5ec7H9yOE6PbA+Q8=);strokeColor=#000000;strokeWidth=2;points=[[1,0.5,0],[0.5,0.5,0],[0.5,0,0],[0.03,0.04,0],[0.97,0.04,0],[0.03,0.96,0],[0.97,0.96,0]];labelBackgroundColor=none;rounded=0;html=1;whiteSpace=wrap;" vertex="1" parent="1">
          <mxGeometry x="2250" y="1219" width="109" height="81" as="geometry" />
        </mxCell>
        <mxCell id="27" style="vsdxID=12;fillColor=none;gradientColor=none;strokeColor=none;strokeWidth=2;points=[[0.5,0.5,0]];labelBackgroundColor=none;rounded=0;html=1;whiteSpace=wrap;" vertex="1" parent="1">
          <mxGeometry x="1047" y="966" width="100" height="100" as="geometry" />
        </mxCell>
        <mxCell id="28" style="vsdxID=13;fillColor=#d1ecbb;gradientColor=none;shape=stencil(lVfbUtwwDP2afdU4Unx7pu1/MGUpO6Uss0ALf195EluysgnhLeuV5JOjo0sOdPPycPt8PKB7eb2cfx//ne5eHw707YB4eno4Xk6v/HSg7we6uT9fjr8u57enu+n3822xLE9/zn9LhPfJL3gIQ/FC9zGdeAduOvkxOfx8u0wew9JlPvIB0E9H7zhbEYxhtqpHA6RxtqL5iC9LsxVJeH394+lJ40VIPd6Qa9Q1vBEGg5fvcMHg5TC+x+sjZG/wKivay5fymY9GXN6vUM5HNEK2fCHE3N9PDoYtwly76qOFHbcBc+oMYEow2AQrGcxHI0G0hCmrNcJ6RUam62uCVB5DU1pjbsYWGUjq4UaEgIv8ooHL0WNa5zcOTSQz3jSCw0/wEvWAGV0ygEuY0RQQQTCC0FZ7Bal9an4DUDSEKZTzEY5Vau3+8vrU3z94yBuEFYo7vtABbvPFqYs9XoxAaYHX5JdF66KBK0b71Jiwgqtwrb2RQ4Yxd/ZjbY1r2WAPowZm0LbT7CGadkpDo6W+nrbaqwbtU8sntdQ3NSqUIlBb7fz2pjuW6H6drkIvdXQNzm2iJXC5R5ti1VtDW4NIqTML1GMVm71MiUdVYYZsqqbgMzIcsPYDqVqlKrouq16G3LOpl9WnaLVLHTuqP1cRBfBm7OleX2dMliZHNvzVxFKURipzarMQCMHgLQMQDd4WRaYO82vxKqu92dU+da1hZZkxzSBT7u8vy0Qy90cw6ZUl4DpdWdqoHZxreFXmZOwli1epoK41vKyZLq6t9vXF0rS/pkflIUuFM+XD3XIxdKKMJkmv6eIl+EZXRrmpthlfS3cd7mLojIslqISxbTks8Gqr3c1G+cheFsySoFHKopNMOZTXN/eXHYA29Ohkz5Q1KG8SxqkzCS4LFi0AY49X72q0MNqnxiFCNPntx4iRg4N+ZZMZuNr6wZtslPFnio1Hvd3YeJKal1NGe7WgXGrpqNmPAtFIoewRS2q94bZFv8pVobbfxzfnc2gduy0zavyhjiAVrsYo9RZ7GTKDWY97bMDM14reG2ipI7oqJH6QT+n70+Pj9CWu/7ef3nw0fbbT9/8=);strokeColor=#ffffff;strokeWidth=2;points=[[0.5,0.5,0]];labelBackgroundColor=none;rounded=0;html=1;whiteSpace=wrap;" vertex="1" parent="27">
          <mxGeometry x="17" width="65" height="50" as="geometry" />
        </mxCell>
        <mxCell id="29" style="vsdxID=14;fillColor=#ff970b;gradientColor=none;shape=stencil(pZPdkoIwDIWfpreZ0JRgr119D0dROiI4Bf/eXrBVCe4yzuxdenrSL2lTRfOmWB1zpbFpfb3PL27TFop+lNauKnLv2i5StFA039Y+3/n6VG3C+rjqnX10qM/9CdeQRwxEfZbGW1DM7LFcBnfpqkl3gvi3nQk4+49d1rI++VB6EnZnBthEf5RMCmiDdNUSibcoUAqcRg+NPVHQBgxPsd8ZLwEsS3KWASeSjZJrLFgryThF1RrISi5K5qjXYVUkHd92OupzeHtPSArEkjt8B/qcHfrtebvgPaVbV5bDnfE8d1L4C7S4Aw==);strokeColor=#ffffff;strokeWidth=2;points=[[0.5,0.5,0]];labelBackgroundColor=none;rounded=0;html=1;whiteSpace=wrap;" vertex="1" parent="27">
          <mxGeometry x="44" y="19" width="10" height="22" as="geometry" />
        </mxCell>
        <mxCell id="30" style="vsdxID=15;fillColor=#ffffff;gradientColor=none;shape=stencil(UzV2Ls5ILEhVNTIoLinKz04tz0wpyVA1dlE1MsrMy0gtyiwBslSNXVWNndPyi1LTi/JL81Ig/IJEkEoQKze/DGRCBUSfoYEBSI+RQSUq3w2iOCczD0kxCUqNjfSMTFGU41FsZq5nTrRiAi4GMhB+TcvMyYEEFbI8etgAhSDhauwKAA==);strokeColor=#ffffff;strokeWidth=2;points=[[0.5,0.5,0]];labelBackgroundColor=none;rounded=0;html=1;whiteSpace=wrap;" vertex="1" parent="27">
          <mxGeometry x="34" y="42" width="30" height="57" as="geometry" />
        </mxCell>
        <mxCell id="31" value="&lt;div style=&quot;font-size: 1px&quot;&gt;&lt;font style=&quot;font-size:14.11px;font-family:Calibri;color:#d57a00;direction:ltr;letter-spacing:0px;line-height:120%;opacity:1&quot;&gt;Wireless Access Point&lt;br/&gt;&lt;/font&gt;&lt;/div&gt;" style="text;vsdxID=12;fillColor=none;gradientColor=none;strokeColor=none;strokeWidth=2;points=[[0.5,0.5,0]];labelBackgroundColor=none;rounded=0;html=1;whiteSpace=wrap;verticalAlign=middle;align=center;;html=1;" vertex="1" parent="27">
          <mxGeometry x="-18.35" y="100" width="136.7" height="28.23" as="geometry" />
        </mxCell>
        <mxCell id="32" style="vsdxID=16;fillColor=none;gradientColor=none;strokeColor=none;strokeWidth=2;points=[[0.5,0.5,0]];labelBackgroundColor=none;rounded=0;html=1;whiteSpace=wrap;" vertex="1" parent="1">
          <mxGeometry x="1201" y="872" width="100" height="100" as="geometry" />
        </mxCell>
        <mxCell id="33" style="vsdxID=17;fillColor=#ffffff;gradientColor=none;shape=stencil(nZLdDoMgDIWfprcEi7p57dx7mIiTjIFB3M/bD0bMlEQXd3fafm0O4QArh67uOSAdrNFX/hCN7YCdAFGojhthnQJWAStbbfjF6FE1oe5rT3p103d/4Rn2CiSY+i2kr9BJKP3U54BLoeZ4GuNFQjBfX8hInu3hDzG/beeX++Vjp+EEb1z+Ezw6/2wdjg3sxBc2nPh+aiukDJmYz+MQuFYIEKve);strokeColor=#ffffff;strokeWidth=2;points=[[0.5,0.5,0]];labelBackgroundColor=none;rounded=0;html=1;whiteSpace=wrap;" vertex="1" parent="32">
          <mxGeometry y="27" width="100" height="45" as="geometry" />
        </mxCell>
        <mxCell id="34" style="vsdxID=18;fillColor=#d1ecbb;gradientColor=none;shape=stencil(nZBLDoAgDERP0z3SIyjew0SURgSD+Lu9kMZoXLhwN9O+tukAlrNpJg1SzDH4QW/URgNYgZTkjA4UkwJUgGXng+6DX1zLfmoymdXo17xh5zmRJ6Q42BWCfc2oJfdAr+Yv+AP9Cb7OJ3H/2JG1HNGz/84klThPVCc=);strokeColor=#ffffff;strokeWidth=2;points=[[0.5,0.5,0]];labelBackgroundColor=none;rounded=0;html=1;whiteSpace=wrap;" vertex="1" parent="32">
          <mxGeometry x="68" y="34" width="26" height="24" as="geometry" />
        </mxCell>
        <mxCell id="35" style="vsdxID=19;fillColor=#FFFFFF;gradientColor=none;shape=stencil(pZfNboMwEISfhuvKXhvbnNP0PSKFFFQaIpL+vX1DUdUkq3iZcDMwg9bfoGVduNWx2Rzqgs3xNPSv9We7PTWFeyqY231TD+3pvCrcunCrXT/UL0P/vt9O14fNqBxXb/3H+IavyWcj2TS62HxPd8zv1fMk7tr9hdg8JuSSvL0v9uTjIr1LFMJ9vWWKdplBqUhChA1XMK8j8p5iNZc8Rwr2cbFSt2MyUFbSoLD3hhwvM2ifj8AJGzJhRSY/F39ZEs/OSoqVssuKAvRRSoOCPkSq3DKDUpKgieozSVkzu50lpsSPi5WiUySGgpIGhXtVUgkFJQ1aQzNQy8+yz8cULLlM5ZI+bEiBYkLow4a/Pc1kD8qVcm6BgnKBU+l/Cn7Z1mCDsgHZ1mBDNgDZ1EC5Uo4giuqVxOTvTUlATg2wQdmCnBpgQzYDOTOAcqUciRQ2KKHJAVLJAGqiUIMQ4ziqz7KXszgo19qbAAkbBMzz4v+4tWu77vLJ7cHsfGs61Ln1Dw==);strokeColor=#FFFFFF;strokeWidth=2;points=[[0.5,0.5,0]];labelBackgroundColor=none;rounded=0;html=1;whiteSpace=wrap;" vertex="1" parent="32">
          <mxGeometry x="11" y="40" width="40" height="13" as="geometry" />
        </mxCell>
        <mxCell id="36" style="vsdxID=20;fillColor=#FFFFFF;gradientColor=none;shape=stencil(pVVJbsMwDHyNroQWazun6T8CxKmNunHgOF1+X6pG0dBCmbC9yfIMbc5wJOU25253apXV53kan9u3fj93yj0oa/tj1079jCvltsptDuPUPk3j5bhfnk+7giyrl/G1VHhfeE2AWEhWfywbKYFOXzuPC37oj1d4lyB5QogZspEQUoaGITRYLxOC0fp3eDBg6vpRQsAOEkPwDlxYaSRBBw06MP2uHZDiK8eow9FCMoSAFQJjQNIQHSGgh54hRAPeSghogaVf8IzDWL5JVCHcyXwDUUIoEtEvoIvcDH1P5B/hNwy4wzFqcZk5mhgD2UkiYHHmGIFqgtHgGUIdYsbg+ogo1ZkI1AT8f9OwmQkrhawE7bAdz2f+X/jKL+qvjWCommXgmHnLYEUBsEkYMXRgFTEuwVjeN5IDojQgOoKKQlVkPCNRFcj7wbz2t73Cxc9tfOiH4frN+t7GreXOd9tP);strokeColor=#FFFFFF;strokeWidth=2;points=[[0.5,0.5,0]];labelBackgroundColor=none;rounded=0;html=1;whiteSpace=wrap;" vertex="1" parent="32">
          <mxGeometry x="70" y="36" width="22" height="21" as="geometry" />
        </mxCell>
        <mxCell id="37" value="&lt;div style=&quot;font-size: 1px&quot;&gt;&lt;font style=&quot;font-size:14.11px;font-family:Calibri;color:#d57a00;direction:ltr;letter-spacing:0px;line-height:120%;opacity:1&quot;&gt;Router&lt;br/&gt;&lt;/font&gt;&lt;/div&gt;" style="text;vsdxID=16;fillColor=none;gradientColor=none;strokeColor=none;strokeWidth=2;points=[[0.5,0.5,0]];labelBackgroundColor=none;rounded=0;html=1;whiteSpace=wrap;verticalAlign=middle;align=center;;html=1;" vertex="1" parent="32">
          <mxGeometry x="23.42" y="100" width="53.16" height="28.23" as="geometry" />
        </mxCell>
        <mxCell id="38" value="&lt;div style=&quot;font-size: 1px&quot;&gt;&lt;font style=&quot;font-size:14.11px;font-family:Calibri;color:#000000;direction:ltr;letter-spacing:0px;line-height:120%;opacity:1&quot;&gt;&amp;lt;SQL&amp;gt; &lt;br/&gt;User Database&lt;br/&gt;&lt;/font&gt;&lt;/div&gt;" style="verticalAlign=middle;align=center;vsdxID=56;fillColor=#ffffff;gradientColor=#ffffff;shape=stencil(vVTbboMwDP2aPBKFeMD63Hb/EZUA0VKCTLbSv1+Qi1YC9KnizZdjO+fIMYNj36hOMyl6j+5b30zpGwYnJqVpG43GB4vBmcGxcqhrdD9tSX6nRuRoXd3v2GGgulSMJVLcJ5f8L8Ja0z5hD2/DKryEHE5YnhWExgkueZFTaJg3mBp+5jx/FA2JGkyfoPPKG9dS/oG2CmudhHFJZVU9S/U3rbtFeJVMPDwFDvCKj8gXfEQx4xPpI/aisjp3g/Q7kLEysBDmY6bLltA7SLO1YKtMUsFFFnEJjz1ES7v6CXbZ2FffLxj/96Ay1tI5ec7H9yOE6PbA+Q8=);strokeColor=#e8e8e8;points=[[1,0.5,0],[0.5,0.5,0],[0.5,0,0],[0.03,0.04,0],[0.97,0.04,0],[0.03,0.96,0],[0.97,0.96,0]];labelBackgroundColor=none;rounded=0;html=1;whiteSpace=wrap;" vertex="1" parent="1">
          <mxGeometry x="1001" y="1236" width="109" height="81" as="geometry" />
        </mxCell>
        <mxCell id="39" style="vsdxID=89;fillColor=#ffffff;gradientColor=none;fillOpacity=30;shape=stencil(nZBLDoAgDERP0z3SIyjew0SURgSD+Lu9kMZoXLhwN9O+tukAlrNpJg1SzDH4QW/URgNYgZTkjA4UkwJUgGXng+6DX1zLfmoymdXo17xh5zmRJ6Q42BWCfc2oJfdAr+Yv+AP9Cb7OJ3H/2JG1HNGz/84klThPVCc=);strokeColor=#ffffff;points=[[1,0.5,0],[0.5,0,0],[0.5,0.5,0],[0.5,0.5,0]];labelBackgroundColor=none;rounded=0;html=1;whiteSpace=wrap;" vertex="1" parent="1">
          <mxGeometry x="1150" y="1229" width="296" height="222" as="geometry" />
        </mxCell>
        <mxCell id="40" value="&lt;div style=&quot;font-size: 1px&quot;&gt;&lt;font style=&quot;font-size:14.11px;font-family:Calibri;color:#000000;direction:ltr;letter-spacing:0px;line-height:120%;opacity:1&quot;&gt;&amp;lt;HTML&amp;gt; &lt;br/&gt;Path Planning&lt;br/&gt;&lt;/font&gt;&lt;/div&gt;" style="verticalAlign=middle;align=center;vsdxID=75;fillColor=#ffffff;gradientColor=none;shape=stencil(vVTbboMwDP2aPBKFeMD63Hb/EZUA0VKCTLbSv1+Qi1YC9KnizZdjO+fIMYNj36hOMyl6j+5b30zpGwYnJqVpG43GB4vBmcGxcqhrdD9tSX6nRuRoXd3v2GGgulSMJVLcJ5f8L8Ja0z5hD2/DKryEHE5YnhWExgkueZFTaJg3mBp+5jx/FA2JGkyfoPPKG9dS/oG2CmudhHFJZVU9S/U3rbtFeJVMPDwFDvCKj8gXfEQx4xPpI/aisjp3g/Q7kLEysBDmY6bLltA7SLO1YKtMUsFFFnEJjz1ES7v6CXbZ2FffLxj/96Ay1tI5ec7H9yOE6PbA+Q8=);strokeColor=#000000;strokeWidth=2;points=[[1,0.5,0],[0.5,0.5,0],[0.5,0,0],[0.03,0.04,0],[0.97,0.04,0],[0.03,0.96,0],[0.97,0.96,0]];labelBackgroundColor=none;rounded=0;html=1;whiteSpace=wrap;" vertex="1" parent="1">
          <mxGeometry x="1762" y="973" width="109" height="81" as="geometry" />
        </mxCell>
        <mxCell id="41" value="&lt;div style=&quot;font-size: 1px&quot;&gt;&lt;font style=&quot;font-size:14.11px;font-family:Calibri;color:#000000;direction:ltr;letter-spacing:0px;line-height:120%;opacity:1&quot;&gt;&amp;lt;ROS&amp;gt; &lt;br/&gt;Image Capture&lt;br/&gt;&lt;/font&gt;&lt;/div&gt;" style="verticalAlign=middle;align=center;vsdxID=76;fillColor=#ffffff;gradientColor=none;shape=stencil(vVTbboMwDP2aPBKFeMD63Hb/EZUA0VKCTLbSv1+Qi1YC9KnizZdjO+fIMYNj36hOMyl6j+5b30zpGwYnJqVpG43GB4vBmcGxcqhrdD9tSX6nRuRoXd3v2GGgulSMJVLcJ5f8L8Ja0z5hD2/DKryEHE5YnhWExgkueZFTaJg3mBp+5jx/FA2JGkyfoPPKG9dS/oG2CmudhHFJZVU9S/U3rbtFeJVMPDwFDvCKj8gXfEQx4xPpI/aisjp3g/Q7kLEysBDmY6bLltA7SLO1YKtMUsFFFnEJjz1ES7v6CXbZ2FffLxj/96Ay1tI5ec7H9yOE6PbA+Q8=);strokeColor=#000000;strokeWidth=2;points=[[1,0.5,0],[0.5,0.5,0],[0.5,0,0],[0.03,0.04,0],[0.97,0.04,0],[0.03,0.96,0],[0.97,0.96,0]];labelBackgroundColor=none;rounded=0;html=1;whiteSpace=wrap;" vertex="1" parent="1">
          <mxGeometry x="1759" y="835" width="109" height="81" as="geometry" />
        </mxCell>
        <mxCell id="42" value="&lt;div style=&quot;font-size: 1px&quot;&gt;&lt;font style=&quot;font-size:14.11px;font-family:Calibri;color:#000000;direction:ltr;letter-spacing:0px;line-height:120%;opacity:1&quot;&gt;Camera Interface&lt;br/&gt;&lt;/font&gt;&lt;/div&gt;" style="verticalAlign=middle;align=center;vsdxID=77;fillColor=#ffffff;gradientColor=none;shape=stencil(vVTbboMwDP2aPBKFeMD63Hb/EZUA0VKCTLbSv1+Qi1YC9KnizZdjO+fIMYNj36hOMyl6j+5b30zpGwYnJqVpG43GB4vBmcGxcqhrdD9tSX6nRuRoXd3v2GGgulSMJVLcJ5f8L8Ja0z5hD2/DKryEHE5YnhWExgkueZFTaJg3mBp+5jx/FA2JGkyfoPPKG9dS/oG2CmudhHFJZVU9S/U3rbtFeJVMPDwFDvCKj8gXfEQx4xPpI/aisjp3g/Q7kLEysBDmY6bLltA7SLO1YKtMUsFFFnEJjz1ES7v6CXbZ2FffLxj/96Ay1tI5ec7H9yOE6PbA+Q8=);strokeColor=#000000;strokeWidth=2;points=[[1,0.5,0],[0.5,0.5,0],[0.5,0,0],[0.03,0.04,0],[0.97,0.04,0],[0.03,0.96,0],[0.97,0.96,0]];labelBackgroundColor=none;rounded=0;html=1;whiteSpace=wrap;" vertex="1" parent="1">
          <mxGeometry x="1759" y="719" width="109" height="81" as="geometry" />
        </mxCell>
        <mxCell id="43" value="&lt;div style=&quot;font-size: 1px&quot;&gt;&lt;font style=&quot;font-size:14.11px;font-family:Calibri;color:#000000;direction:ltr;letter-spacing:0px;line-height:120%;opacity:1&quot;&gt;&amp;lt;ROS&amp;gt; &lt;br/&gt;User Path Drawing&lt;br/&gt;&lt;/font&gt;&lt;/div&gt;" style="verticalAlign=middle;align=center;vsdxID=84;fillColor=#ffffff;gradientColor=none;shape=stencil(vVTbboMwDP2aPBKFeMD63Hb/EZUA0VKCTLbSv1+Qi1YC9KnizZdjO+fIMYNj36hOMyl6j+5b30zpGwYnJqVpG43GB4vBmcGxcqhrdD9tSX6nRuRoXd3v2GGgulSMJVLcJ5f8L8Ja0z5hD2/DKryEHE5YnhWExgkueZFTaJg3mBp+5jx/FA2JGkyfoPPKG9dS/oG2CmudhHFJZVU9S/U3rbtFeJVMPDwFDvCKj8gXfEQx4xPpI/aisjp3g/Q7kLEysBDmY6bLltA7SLO1YKtMUsFFFnEJjz1ES7v6CXbZ2FffLxj/96Ay1tI5ec7H9yOE6PbA+Q8=);strokeColor=#000000;strokeWidth=2;points=[[1,0.5,0],[0.5,0.5,0],[0.5,0,0],[0.03,0.04,0],[0.97,0.04,0],[0.03,0.96,0],[0.97,0.96,0]];labelBackgroundColor=none;rounded=0;html=1;whiteSpace=wrap;" vertex="1" parent="1">
          <mxGeometry x="1954" y="973" width="109" height="81" as="geometry" />
        </mxCell>
        <mxCell id="2" value="Connector" parent="0" />
        <mxCell id="44" style="vsdxID=86;edgeStyle=none;startArrow=none;endArrow=block;startSize=5;endSize=5;strokeWidth=2;strokeColor=#ffffff;spacingTop=0;spacingBottom=0;spacingLeft=0;spacingRight=0;verticalAlign=middle;html=1;labelBackgroundColor=#ffffff;rounded=0;exitX=0.5045871559633027;exitY=1.0123456790123457;exitDx=0;exitDy=0;exitPerimeter=0;entryX=0.5045871559633027;entryY=0;entryDx=0;entryDy=0;entryPerimeter=0;" edge="1" parent="2" source="43" target="19">
          <mxGeometry relative="1" as="geometry">
            <mxPoint as="offset" />
            <Array as="points">
              <mxPoint x="2009" y="1071.61" />
              <mxPoint x="1817" y="1071.61" />
            </Array>
          </mxGeometry>
        </mxCell>
        <mxCell id="45" style="vsdxID=85;edgeStyle=none;startArrow=none;endArrow=block;startSize=5;endSize=5;strokeWidth=2;strokeColor=#ffffff;spacingTop=0;spacingBottom=0;spacingLeft=0;spacingRight=0;verticalAlign=middle;html=1;labelBackgroundColor=#ffffff;rounded=0;exitX=1;exitY=0.5061728395061729;exitDx=0;exitDy=0;exitPerimeter=0;entryX=0;entryY=0.5061728395061729;entryDx=0;entryDy=0;entryPerimeter=0;" edge="1" parent="2" source="40" target="43">
          <mxGeometry relative="1" as="geometry">
            <mxPoint as="offset" />
            <Array as="points" />
          </mxGeometry>
        </mxCell>
        <mxCell id="46" style="vsdxID=81;edgeStyle=none;startArrow=none;endArrow=block;startSize=5;endSize=5;strokeWidth=2;strokeColor=#ffffff;spacingTop=0;spacingBottom=0;spacingLeft=0;spacingRight=0;verticalAlign=middle;html=1;labelBackgroundColor=#ffffff;rounded=0;exitX=0.5045871559633027;exitY=1.0123456790123457;exitDx=0;exitDy=0;exitPerimeter=0;entryX=0.5045871559633027;entryY=0;entryDx=0;entryDy=0;entryPerimeter=0;" edge="1" parent="2" source="42" target="41">
          <mxGeometry relative="1" as="geometry">
            <mxPoint x="10" y="-1" as="offset" />
            <Array as="points" />
          </mxGeometry>
        </mxCell>
        <mxCell id="47" value="&lt;div style=&quot;font-size: 1px&quot;&gt;&lt;font style=&quot;font-size:11.29px;font-family:Calibri;color:#000000;direction:ltr;letter-spacing:0px;line-height:120%;opacity:1&quot;&gt;Image File&lt;br/&gt;&lt;/font&gt;&lt;/div&gt;" style="vsdxID=80;edgeStyle=none;startArrow=none;endArrow=block;startSize=5;endSize=5;strokeWidth=2;strokeColor=#ffffff;spacingTop=0;spacingBottom=0;spacingLeft=0;spacingRight=0;verticalAlign=middle;html=1;labelBackgroundColor=#ffffff;rounded=0;align=center;exitX=0.5045871559633027;exitY=1.0123456790123457;exitDx=0;exitDy=0;exitPerimeter=0;entryX=0.5045871559633027;entryY=0;entryDx=0;entryDy=0;entryPerimeter=0;" edge="1" parent="2" source="41" target="40">
          <mxGeometry relative="1" as="geometry">
            <mxPoint x="8" as="offset" />
            <Array as="points">
              <mxPoint x="1814" y="937.42" />
              <mxPoint x="1816.66" y="937.42" />
            </Array>
          </mxGeometry>
        </mxCell>
        <mxCell id="48" value="&lt;div style=&quot;font-size: 1px&quot;&gt;&lt;font style=&quot;font-size:11.29px;font-family:Calibri;color:#000000;direction:ltr;letter-spacing:0px;line-height:120%;opacity:1&quot;&gt;Page Redirect&lt;br/&gt;&lt;/font&gt;&lt;/div&gt;" style="vsdxID=78;edgeStyle=none;startArrow=none;endArrow=block;startSize=5;endSize=5;strokeWidth=2;strokeColor=#ffffff;spacingTop=0;spacingBottom=0;spacingLeft=0;spacingRight=0;verticalAlign=middle;html=1;labelBackgroundColor=#ffffff;rounded=0;align=center;exitX=0.9724770642201835;exitY=0.037037037037037035;exitDx=0;exitDy=0;exitPerimeter=0;entryX=0;entryY=0.5061728395061729;entryDx=0;entryDy=0;entryPerimeter=0;" edge="1" parent="2" source="18" target="40">
          <mxGeometry relative="1" as="geometry">
            <mxPoint as="offset" />
            <Array as="points">
              <mxPoint x="1685.07" y="1136" />
              <mxPoint x="1685.07" y="1013.79" />
            </Array>
          </mxGeometry>
        </mxCell>
        <mxCell id="49" value="&lt;div style=&quot;font-size: 1px&quot;&gt;&lt;font style=&quot;font-size:11.29px;font-family:Calibri;color:#000000;direction:ltr;letter-spacing:0px;line-height:120%;opacity:1&quot;&gt;USB Serial&lt;br/&gt;&lt;/font&gt;&lt;/div&gt;" style="vsdxID=35;edgeStyle=none;startArrow=none;endArrow=block;startSize=5;endSize=5;strokeWidth=2;strokeColor=#ffffff;spacingTop=0;spacingBottom=0;spacingLeft=0;spacingRight=0;verticalAlign=middle;html=1;labelBackgroundColor=#ffffff;rounded=0;align=center;exitX=0.4954128440366973;exitY=0;exitDx=0;exitDy=0;exitPerimeter=0;entryX=0.5045871559633027;entryY=1.0123456790123457;entryDx=0;entryDy=0;entryPerimeter=0;" edge="1" parent="2" source="25" target="24">
          <mxGeometry relative="1" as="geometry">
            <mxPoint x="-10" as="offset" />
            <Array as="points" />
          </mxGeometry>
        </mxCell>
        <mxCell id="50" value="&lt;div style=&quot;font-size: 1px&quot;&gt;&lt;font style=&quot;font-size:11.29px;font-family:Calibri;color:#000000;direction:ltr;letter-spacing:0px;line-height:120%;opacity:1&quot;&gt;Web Socket (TCP/IP)&lt;br/&gt;&lt;/font&gt;&lt;/div&gt;" style="vsdxID=33;edgeStyle=none;startArrow=none;endArrow=block;startSize=5;endSize=5;strokeWidth=2;strokeColor=#ffffff;spacingTop=0;spacingBottom=0;spacingLeft=0;spacingRight=0;verticalAlign=middle;html=1;labelBackgroundColor=#ffffff;rounded=0;align=center;exitX=0.5;exitY=0.5;exitDx=0;exitDy=0;exitPerimeter=0;entryX=0.4954128440366973;entryY=0;entryDx=0;entryDy=0;entryPerimeter=0;" edge="1" parent="2" source="32" target="17">
          <mxGeometry relative="1" as="geometry">
            <mxPoint as="offset" />
            <Array as="points">
              <mxPoint x="1539.34" y="922" />
            </Array>
          </mxGeometry>
        </mxCell>
        <mxCell id="51" value="&lt;div style=&quot;font-size: 1px&quot;&gt;&lt;font style=&quot;font-size:11.29px;font-family:Calibri;color:#000000;direction:ltr;letter-spacing:0px;line-height:120%;opacity:1&quot;&gt;Web Socket (TCP/IP)&lt;br/&gt;&lt;/font&gt;&lt;/div&gt;" style="vsdxID=32;edgeStyle=none;startArrow=none;endArrow=block;startSize=5;endSize=5;strokeWidth=2;strokeColor=#ffffff;spacingTop=0;spacingBottom=0;spacingLeft=0;spacingRight=0;verticalAlign=middle;html=1;labelBackgroundColor=#ffffff;rounded=0;align=center;exitX=0.5;exitY=0.5;exitDx=0;exitDy=0;exitPerimeter=0;entryX=0.4954128440366973;entryY=0;entryDx=0;entryDy=0;entryPerimeter=0;" edge="1" parent="2" source="27" target="17">
          <mxGeometry relative="1" as="geometry">
            <mxPoint x="-1" as="offset" />
            <Array as="points">
              <mxPoint x="1464.26" y="1016" />
              <mxPoint x="1464.26" y="921.31" />
              <mxPoint x="1539.34" y="921.31" />
            </Array>
          </mxGeometry>
        </mxCell>
        <mxCell id="52" value="&lt;div style=&quot;font-size: 1px&quot;&gt;&lt;font style=&quot;font-size:11.29px;font-family:Calibri;color:#000000;direction:ltr;letter-spacing:0px;line-height:120%;opacity:1&quot;&gt;USB Serial&lt;br/&gt;&lt;/font&gt;&lt;/div&gt;" style="vsdxID=31;edgeStyle=none;startArrow=block;endArrow=block;startSize=5;endSize=5;strokeWidth=2;strokeColor=#ffffff;spacingTop=0;spacingBottom=0;spacingLeft=0;spacingRight=0;verticalAlign=middle;html=1;labelBackgroundColor=#ffffff;rounded=0;align=center;exitX=1;exitY=0.5061728395061729;exitDx=0;exitDy=0;exitPerimeter=0;entryX=0;entryY=0.5061728395061729;entryDx=0;entryDy=0;entryPerimeter=0;" edge="1" parent="2" source="20" target="26">
          <mxGeometry relative="1" as="geometry">
            <mxPoint as="offset" />
            <Array as="points" />
          </mxGeometry>
        </mxCell>
        <mxCell id="53" value="&lt;div style=&quot;font-size: 1px&quot;&gt;&lt;font style=&quot;font-size:11.29px;font-family:Calibri;color:#000000;direction:ltr;letter-spacing:0px;line-height:120%;opacity:1&quot;&gt;Page Redirect&lt;br/&gt;&lt;/font&gt;&lt;/div&gt;" style="vsdxID=30;edgeStyle=none;startArrow=none;endArrow=block;startSize=5;endSize=5;strokeWidth=2;strokeColor=#ffffff;spacingTop=0;spacingBottom=0;spacingLeft=0;spacingRight=0;verticalAlign=middle;html=1;labelBackgroundColor=#ffffff;rounded=0;align=center;exitX=0.4954128440366973;exitY=1.0123456790123457;exitDx=0;exitDy=0;exitPerimeter=0;entryX=0.4954128440366973;entryY=0;entryDx=0;entryDy=0;entryPerimeter=0;" edge="1" parent="2" source="17" target="18">
          <mxGeometry relative="1" as="geometry">
            <mxPoint x="10" y="-1" as="offset" />
            <Array as="points" />
          </mxGeometry>
        </mxCell>
        <mxCell id="54" value="&lt;div style=&quot;font-size: 1px&quot;&gt;&lt;font style=&quot;font-size:11.29px;font-family:Calibri;color:#000000;direction:ltr;letter-spacing:0px;line-height:120%;opacity:1&quot;&gt;ROS Publish&lt;br/&gt;&lt;/font&gt;&lt;/div&gt;" style="vsdxID=29;edgeStyle=none;startArrow=none;endArrow=block;startSize=5;endSize=5;strokeWidth=2;strokeColor=#ffffff;spacingTop=0;spacingBottom=0;spacingLeft=0;spacingRight=0;verticalAlign=middle;html=1;labelBackgroundColor=#ffffff;rounded=0;align=center;exitX=1;exitY=0.5061728395061729;exitDx=0;exitDy=0;exitPerimeter=0;entryX=0;entryY=0.5061728395061729;entryDx=0;entryDy=0;entryPerimeter=0;" edge="1" parent="2" source="18" target="19">
          <mxGeometry relative="1" as="geometry">
            <mxPoint as="offset" />
            <Array as="points" />
          </mxGeometry>
        </mxCell>
        <mxCell id="55" value="&lt;div style=&quot;font-size: 1px&quot;&gt;&lt;font style=&quot;font-size:11.29px;font-family:Calibri;color:#000000;direction:ltr;letter-spacing:0px;line-height:120%;opacity:1&quot;&gt;ROS Publish&lt;br/&gt;&lt;/font&gt;&lt;/div&gt;" style="vsdxID=28;edgeStyle=none;startArrow=none;endArrow=block;startSize=5;endSize=5;strokeWidth=2;strokeColor=#ffffff;spacingTop=0;spacingBottom=0;spacingLeft=0;spacingRight=0;verticalAlign=middle;html=1;labelBackgroundColor=#ffffff;rounded=0;align=center;exitX=1;exitY=0.5061728395061729;exitDx=0;exitDy=0;exitPerimeter=0;entryX=0.5045871559633027;entryY=0;entryDx=0;entryDy=0;entryPerimeter=0;" edge="1" parent="2" source="19" target="20">
          <mxGeometry relative="1" as="geometry">
            <mxPoint as="offset" />
            <Array as="points">
              <mxPoint x="1992.34" y="1174" />
            </Array>
          </mxGeometry>
        </mxCell>
        <mxCell id="56" value="&lt;div style=&quot;font-size: 1px&quot;&gt;&lt;font style=&quot;font-size:11.29px;font-family:Calibri;color:#000000;direction:ltr;letter-spacing:0px;line-height:120%;opacity:1&quot;&gt;ROS Publish&lt;br/&gt;&lt;/font&gt;&lt;/div&gt;" style="vsdxID=27;edgeStyle=none;startArrow=none;endArrow=block;startSize=5;endSize=5;strokeWidth=2;strokeColor=#ffffff;spacingTop=0;spacingBottom=0;spacingLeft=0;spacingRight=0;verticalAlign=middle;html=1;labelBackgroundColor=#ffffff;rounded=0;align=center;exitX=0.5045871559633027;exitY=1.0123456790123457;exitDx=0;exitDy=0;exitPerimeter=0;entryX=1;entryY=0.5061728395061729;entryDx=0;entryDy=0;entryPerimeter=0;" edge="1" parent="2" source="20" target="21">
          <mxGeometry relative="1" as="geometry">
            <mxPoint x="-1" as="offset" />
            <Array as="points">
              <mxPoint x="1993" y="1334" />
            </Array>
          </mxGeometry>
        </mxCell>
        <mxCell id="57" value="&lt;div style=&quot;font-size: 1px&quot;&gt;&lt;font style=&quot;font-size:11.29px;font-family:Calibri;color:#000000;direction:ltr;letter-spacing:0px;line-height:120%;opacity:1&quot;&gt;SQL Queries&lt;br/&gt;&lt;/font&gt;&lt;/div&gt;" style="vsdxID=22;edgeStyle=none;startArrow=none;endArrow=block;startSize=5;endSize=5;strokeWidth=2;strokeColor=#ffffff;spacingTop=0;spacingBottom=0;spacingLeft=0;spacingRight=0;verticalAlign=middle;html=1;labelBackgroundColor=#ffffff;rounded=0;align=center;exitX=0;exitY=0.5061728395061729;exitDx=0;exitDy=0;exitPerimeter=0;entryX=1;entryY=0.5061728395061729;entryDx=0;entryDy=0;entryPerimeter=0;" edge="1" parent="2" source="23" target="38">
          <mxGeometry relative="1" as="geometry">
            <mxPoint as="offset" />
            <Array as="points" />
          </mxGeometry>
        </mxCell>
        <mxCell id="58" value="&lt;div style=&quot;font-size: 1px&quot;&gt;&lt;font style=&quot;font-size:11.29px;font-family:Calibri;color:#000000;direction:ltr;letter-spacing:0px;line-height:120%;opacity:1&quot;&gt;ROS Publish&lt;br/&gt;&lt;/font&gt;&lt;/div&gt;" style="vsdxID=23;edgeStyle=none;startArrow=none;endArrow=block;startSize=5;endSize=5;strokeWidth=2;strokeColor=#ffffff;spacingTop=0;spacingBottom=0;spacingLeft=0;spacingRight=0;verticalAlign=middle;html=1;labelBackgroundColor=#ffffff;rounded=0;align=center;exitX=0.5045871559633027;exitY=0;exitDx=0;exitDy=0;exitPerimeter=0;entryX=0.5045871559633027;entryY=1.0123456790123457;entryDx=0;entryDy=0;entryPerimeter=0;" edge="1" parent="2" source="24" target="23">
          <mxGeometry relative="1" as="geometry">
            <mxPoint x="10" as="offset" />
            <Array as="points" />
          </mxGeometry>
        </mxCell>
        <mxCell id="59" value="&lt;div style=&quot;font-size: 1px&quot;&gt;&lt;font style=&quot;font-size:11.29px;font-family:Calibri;color:#000000;direction:ltr;letter-spacing:0px;line-height:120%;opacity:1&quot;&gt;ROS Publish&lt;br/&gt;&lt;/font&gt;&lt;/div&gt;" style="vsdxID=24;edgeStyle=none;startArrow=none;endArrow=block;startSize=5;endSize=5;strokeWidth=2;strokeColor=#ffffff;spacingTop=0;spacingBottom=0;spacingLeft=0;spacingRight=0;verticalAlign=middle;html=1;labelBackgroundColor=#ffffff;rounded=0;align=center;exitX=0.5045871559633027;exitY=0;exitDx=0;exitDy=0;exitPerimeter=0;entryX=0.027522935779816515;entryY=0.9629629629629629;entryDx=0;entryDy=0;entryPerimeter=0;" edge="1" parent="2" source="23" target="18">
          <mxGeometry relative="1" as="geometry">
            <mxPoint as="offset" />
            <Array as="points">
              <mxPoint x="1366" y="1211.78" />
            </Array>
          </mxGeometry>
        </mxCell>
        <mxCell id="60" value="&lt;div style=&quot;font-size: 1px&quot;&gt;&lt;font style=&quot;font-size:11.29px;font-family:Calibri;color:#000000;direction:ltr;letter-spacing:0px;line-height:120%;opacity:1&quot;&gt;ROS Publish&lt;br/&gt;&lt;/font&gt;&lt;/div&gt;" style="vsdxID=25;edgeStyle=none;startArrow=none;endArrow=block;startSize=5;endSize=5;strokeWidth=2;strokeColor=#ffffff;spacingTop=0;spacingBottom=0;spacingLeft=0;spacingRight=0;verticalAlign=middle;html=1;labelBackgroundColor=#ffffff;rounded=0;align=center;exitX=0.4954128440366973;exitY=0;exitDx=0;exitDy=0;exitPerimeter=0;entryX=0.8715596330275229;entryY=1.0123456790123457;entryDx=0;entryDy=0;entryPerimeter=0;" edge="1" parent="2" source="22" target="18">
          <mxGeometry relative="1" as="geometry">
            <mxPoint x="9" y="-1" as="offset" />
            <Array as="points" />
          </mxGeometry>
        </mxCell>
        <mxCell id="61" value="&lt;div style=&quot;font-size: 1px&quot;&gt;&lt;font style=&quot;font-size:11.29px;font-family:Calibri;color:#000000;direction:ltr;letter-spacing:0px;line-height:120%;opacity:1&quot;&gt;ROS Publish&lt;br/&gt;&lt;/font&gt;&lt;/div&gt;" style="vsdxID=26;edgeStyle=none;startArrow=none;endArrow=block;startSize=5;endSize=5;strokeWidth=2;strokeColor=#ffffff;spacingTop=0;spacingBottom=0;spacingLeft=0;spacingRight=0;verticalAlign=middle;html=1;labelBackgroundColor=#ffffff;rounded=0;align=center;exitX=0;exitY=0.5061728395061729;exitDx=0;exitDy=0;exitPerimeter=0;entryX=1;entryY=0.5061728395061729;entryDx=0;entryDy=0;entryPerimeter=0;" edge="1" parent="2" source="21" target="22">
          <mxGeometry relative="1" as="geometry">
            <mxPoint as="offset" />
            <Array as="points" />
          </mxGeometry>
        </mxCell>
        <mxCell id="62" style="vsdxID=34;edgeStyle=none;startArrow=none;endArrow=block;startSize=5;endSize=5;strokeWidth=2;strokeColor=#ffffff;spacingTop=0;spacingBottom=0;spacingLeft=0;spacingRight=0;verticalAlign=middle;html=1;labelBackgroundColor=#ffffff;rounded=0;" edge="1" parent="2">
          <mxGeometry relative="1" as="geometry">
            <mxPoint as="offset" />
            <Array as="points">
              <mxPoint x="2494" y="609" />
            </Array>
            <mxPoint x="826" y="609" as="sourcePoint" />
            <mxPoint x="2494" y="1749" as="targetPoint" />
          </mxGeometry>
        </mxCell>
      </root>
    </mxGraphModel>
  </diagram>
</mxfile>
